solid C:\Users\Matt\Documents\GitHub\TVGL\TestFiles\cvxhullProb120
	facet normal -0.962482223849129 0.271344741564002 0
		outer loop
			vertex -179.514 -42.65407 350
			vertex -174.8471 -26.10019 350
			vertex -179.514 -42.65407 325
		endloop
	endfacet
	facet normal -0.993541335374556 0.11347076672934 0
		outer loop
			vertex -179.514 -42.65407 325
			vertex -181.4656 -59.74213 325
			vertex -179.514 -42.65407 350
		endloop
	endfacet
	facet normal -0.987968185992829 0.112834266252786 0.105769994919326
		outer loop
			vertex -179.514 -42.65407 325
			vertex -180.3015 -48.33628 323.7059
			vertex -181.4656 -59.74213 325
		endloop
	endfacet
	facet normal -0.987728409037385 0.0860188084575439 -0.130358561560105
		outer loop
			vertex -181.4656 -59.74213 325
			vertex -180.3015 -48.33628 323.7059
			vertex -181.2953 -59.74779 323.7059
		endloop
	endfacet
	facet normal -0.991450102453851 -0.00258295590730597 -0.130460808992698
		outer loop
			vertex -181.2754 -67.38627 323.7059
			vertex -181.4656 -59.74213 325
			vertex -181.2953 -59.74779 323.7059
		endloop
	endfacet
	facet normal -0.923969827886212 -0.00240715424730339 -0.382457792134444
		outer loop
			vertex -181.2754 -67.38627 323.7059
			vertex -181.2953 -59.74779 323.7059
			vertex -180.7961 -59.76436 322.5
		endloop
	endfacet
	facet normal -0.923944519746494 -0.00241840706469408 -0.382518856708647
		outer loop
			vertex -180.7961 -59.76436 322.5
			vertex -180.7762 -67.36709 322.5
			vertex -181.2754 -67.38627 323.7059
		endloop
	endfacet
	facet normal -0.920804151080967 -0.076741215298543 -0.382400969175762
		outer loop
			vertex -181.2754 -67.38627 323.7059
			vertex -180.7762 -67.36709 322.5
			vertex -179.987 -76.83656 322.5
		endloop
	endfacet
	facet normal -0.920801237060166 -0.0767398886761623 -0.382408252152641
		outer loop
			vertex -179.987 -76.83656 322.5
			vertex -180.4825 -76.90027 323.7059
			vertex -181.2754 -67.38627 323.7059
		endloop
	endfacet
	facet normal -0.988044309689387 -0.0823439492487615 -0.130337700273331
		outer loop
			vertex -180.6514 -76.922 325
			vertex -181.2754 -67.38627 323.7059
			vertex -180.4825 -76.90027 323.7059
		endloop
	endfacet
	facet normal -0.97673139797444 -0.170316413329612 -0.130338388671308
		outer loop
			vertex -180.4825 -76.90027 323.7059
			vertex -178.8425 -86.30535 323.7059
			vertex -180.6514 -76.922 325
		endloop
	endfacet
	facet normal -0.969846823191248 -0.205117209469886 0.131620932701187
		outer loop
			vertex -180.6514 -76.922 325
			vertex -178.8425 -86.30535 323.7059
			vertex -177.0926 -93.74892 325
		endloop
	endfacet
	facet normal -0.978358423001037 -0.206917365493868 0
		outer loop
			vertex -177.0926 -93.74892 325
			vertex -180.6514 -76.922 350
			vertex -180.6514 -76.922 325
		endloop
	endfacet
	facet normal -0.95985359199148 -0.248328184669965 -0.130438470703906
		outer loop
			vertex -177.0926 -93.74892 325
			vertex -178.8425 -86.30535 323.7059
			vertex -176.9293 -93.70037 323.7059
		endloop
	endfacet
	facet normal -0.933833510165212 -0.333117830869691 -0.130336050458767
		outer loop
			vertex -176.9293 -93.70037 323.7059
			vertex -173.0807 -104.4892 323.7059
			vertex -177.0926 -93.74892 325
		endloop
	endfacet
	facet normal -0.927277133952754 -0.359119137333954 0.105785452917132
		outer loop
			vertex -170.8812 -109.7873 325
			vertex -177.0926 -93.74892 325
			vertex -173.0807 -104.4892 323.7059
		endloop
	endfacet
	facet normal -0.90399046460038 -0.40715910493075 -0.130471081790488
		outer loop
			vertex -170.8812 -109.7873 325
			vertex -173.0807 -104.4892 323.7059
			vertex -170.7278 -109.7132 323.7059
		endloop
	endfacet
	facet normal -0.86400885939026 -0.486332872235094 -0.130265222829062
		outer loop
			vertex -170.7278 -109.7132 323.7059
			vertex -164.1738 -121.3569 323.7059
			vertex -170.8812 -109.7873 325
		endloop
	endfacet
	facet normal -0.861286862321943 -0.505301917150468 0.0534313888616446
		outer loop
			vertex -162.178 -124.6219 325
			vertex -170.8812 -109.7873 325
			vertex -164.1738 -121.3569 323.7059
		endloop
	endfacet
	facet normal -0.862518950745644 -0.506024761849292 0
		outer loop
			vertex -170.8812 -109.7873 325
			vertex -162.178 -124.6219 325
			vertex -170.8812 -109.7873 350
		endloop
	endfacet
	facet normal -0.80532213774529 -0.453299319871057 -0.382068031980946
		outer loop
			vertex -170.278 -109.4959 322.5
			vertex -164.1738 -121.3569 323.7059
			vertex -170.7278 -109.7132 323.7059
		endloop
	endfacet
	facet normal -0.805327573898244 -0.453300776827598 -0.382054844815067
		outer loop
			vertex -164.1738 -121.3569 323.7059
			vertex -170.278 -109.4959 322.5
			vertex -163.7547 -121.0851 322.5
		endloop
	endfacet
	facet normal -0.766048030786681 -0.516482199160647 -0.382644159079987
		outer loop
			vertex -161.6293 -124.2375 322.5
			vertex -164.1738 -121.3569 323.7059
			vertex -163.7547 -121.0851 322.5
		endloop
	endfacet
	facet normal -0.657866667249691 -0.443544542117911 -0.60867042582928
		outer loop
			vertex -163.0881 -120.6528 321.4645
			vertex -161.6293 -124.2375 322.5
			vertex -163.7547 -121.0851 322.5
		endloop
	endfacet
	facet normal -0.691882587214116 -0.389435833868784 -0.607978796348052
		outer loop
			vertex -163.7547 -121.0851 322.5
			vertex -169.5625 -109.1502 321.4645
			vertex -163.0881 -120.6528 321.4645
		endloop
	endfacet
	facet normal -0.531128542242052 -0.298953161362817 -0.792798510926333
		outer loop
			vertex -162.2192 -120.0893 320.6699
			vertex -163.0881 -120.6528 321.4645
			vertex -169.5625 -109.1502 321.4645
		endloop
	endfacet
	facet normal -0.531170592097265 -0.298984288061491 -0.792758599816744
		outer loop
			vertex -162.2192 -120.0893 320.6699
			vertex -169.5625 -109.1502 321.4645
			vertex -168.6301 -108.6998 320.6699
		endloop
	endfacet
	facet normal -0.334040936304008 -0.188024324031025 -0.923614371069343
		outer loop
			vertex -162.2192 -120.0893 320.6699
			vertex -168.6301 -108.6998 320.6699
			vertex -161.2074 -119.4332 320.1704
		endloop
	endfacet
	facet normal -0.317343805072221 -0.213959439667813 -0.923858359035258
		outer loop
			vertex -161.2074 -119.4332 320.1704
			vertex -160.1304 -123.1874 320.6699
			vertex -162.2192 -120.0893 320.6699
		endloop
	endfacet
	facet normal -0.334025050761835 -0.188012963374275 -0.923622428845671
		outer loop
			vertex -161.2074 -119.4332 320.1704
			vertex -168.6301 -108.6998 320.6699
			vertex -167.5442 -108.1752 320.1704
		endloop
	endfacet
	facet normal -0.113990492832031 -0.0641619252956132 -0.991407794444986
		outer loop
			vertex -167.5442 -108.1752 320.1704
			vertex -160.18119452 -118.76768349 320.00933763
			vertex -161.2074 -119.4332 320.1704
		endloop
	endfacet
	facet normal -0.108267564805536 -0.0729938975627745 -0.991438361840853
		outer loop
			vertex -161.2074 -119.4332 320.1704
			vertex -160.18119452 -118.76768349 320.00933763
			vertex -160.06805794 -118.93549234 320.00933763
		endloop
	endfacet
	facet normal -0.113990492250039 -0.0641619248896443 -0.991407794538176
		outer loop
			vertex -167.5442 -108.1752 320.1704
			vertex -160.52844042 -118.15076417 320.00933763
			vertex -160.18119452 -118.76768349 320.00933763
		endloop
	endfacet
	facet normal 0 0 -1
		outer loop
			vertex -175.64236876 -49.60758107 320.00933763
			vertex -160.18119452 -118.76768349 320.00933763
			vertex -160.52844042 -118.15076417 320.00933763
		endloop
	endfacet
	facet normal 0 0 -1
		outer loop
			vertex -176.5212173 -66.79883388 320.00933763
			vertex -175.64236876 -49.60758107 320.00933763
			vertex -160.52844042 -118.15076417 320.00933763
		endloop
	endfacet
	facet normal 0 0 -1
		outer loop
			vertex -176.52015969 -67.20354293 320.00933763
			vertex -176.5212173 -66.79883388 320.00933763
			vertex -160.52844042 -118.15076417 320.00933763
		endloop
	endfacet
	facet normal 0 0 -1
		outer loop
			vertex -176.47815131 -67.70762322 320.00933763
			vertex -176.52015969 -67.20354293 320.00933763
			vertex -160.52844042 -118.15076417 320.00933763
		endloop
	endfacet
	facet normal 0 0 -1
		outer loop
			vertex -176.47815131 -67.70762322 320.00933763
			vertex -160.52844042 -118.15076417 320.00933763
			vertex -168.56615207 -102.92885799 320.00933763
		endloop
	endfacet
	facet normal 0 0 -1
		outer loop
			vertex -176.47815131 -67.70762322 320.00933763
			vertex -168.56615207 -102.92885799 320.00933763
			vertex -168.69081822 -102.65207723 320.00933763
		endloop
	endfacet
	facet normal 0 0 -1
		outer loop
			vertex -176.47815131 -67.70762322 320.00933763
			vertex -168.69081822 -102.65207723 320.00933763
			vertex -168.89472819 -102.08045419 320.00933763
		endloop
	endfacet
	facet normal 0 0 -1
		outer loop
			vertex -174.28263681 -84.78074472 320.00933763
			vertex -176.47815131 -67.70762322 320.00933763
			vertex -168.89472819 -102.08045419 320.00933763
		endloop
	endfacet
	facet normal 0 0 -1
		outer loop
			vertex -174.19574862 -85.27905366 320.00933763
			vertex -174.28263681 -84.78074472 320.00933763
			vertex -168.89472819 -102.08045419 320.00933763
		endloop
	endfacet
	facet normal 0 0 -1
		outer loop
			vertex -174.19574862 -85.27905366 320.00933763
			vertex -168.89472819 -102.08045419 320.00933763
			vertex -174.09437723 -85.67086428 320.00933763
		endloop
	endfacet
	facet normal -0.126460827139417 -0.0327186379676795 -0.991431868525898
		outer loop
			vertex -175.3902 -85.54285 320.1704
			vertex -174.19574862 -85.27905366 320.00933763
			vertex -174.09437723 -85.67086428 320.00933763
		endloop
	endfacet
	facet normal -0.126460826962076 -0.0327186360650824 -0.991431868611307
		outer loop
			vertex -175.3902 -85.54285 320.1704
			vertex -174.09437723 -85.67086428 320.00933763
			vertex -173.5403 -92.6929 320.1704
		endloop
	endfacet
	facet normal -0.370691998051111 -0.0959074589960556 -0.923790669951692
		outer loop
			vertex -176.5677 -85.80293 320.6699
			vertex -175.3902 -85.54285 320.1704
			vertex -173.5403 -92.6929 320.1704
		endloop
	endfacet
	facet normal -0.370688031124804 -0.0959055864645639 -0.923792456164102
		outer loop
			vertex -174.6962 -93.03653 320.6699
			vertex -176.5677 -85.80293 320.6699
			vertex -173.5403 -92.6929 320.1704
		endloop
	endfacet
	facet normal -0.360881731707002 -0.128734111610611 -0.923683876782518
		outer loop
			vertex -169.8192 -103.1243 320.1704
			vertex -174.6962 -93.03653 320.6699
			vertex -173.5403 -92.6929 320.1704
		endloop
	endfacet
	facet normal -0.123130775379988 -0.0439233399415681 -0.991417950393627
		outer loop
			vertex -173.5403 -92.6929 320.1704
			vertex -168.69081822 -102.65207723 320.00933763
			vertex -169.8192 -103.1243 320.1704
		endloop
	endfacet
	facet normal -0.360887768608004 -0.128737168072237 -0.923681092166488
		outer loop
			vertex -170.9316 -103.5898 320.6699
			vertex -174.6962 -93.03653 320.6699
			vertex -169.8192 -103.1243 320.1704
		endloop
	endfacet
	facet normal -0.349037834713786 -0.157211798684168 -0.923827386632806
		outer loop
			vertex -170.9316 -103.5898 320.6699
			vertex -169.8192 -103.1243 320.1704
			vertex -167.5442 -108.1752 320.1704
		endloop
	endfacet
	facet normal -0.119070692589287 -0.0536311995170423 -0.991436263511009
		outer loop
			vertex -169.8192 -103.1243 320.1704
			vertex -168.56615207 -102.92885799 320.00933763
			vertex -167.5442 -108.1752 320.1704
		endloop
	endfacet
	facet normal -0.573896385522181 -0.204722359319605 -0.792926033296417
		outer loop
			vertex -170.9316 -103.5898 320.6699
			vertex -175.6888 -93.33161 321.4645
			vertex -174.6962 -93.03653 320.6699
		endloop
	endfacet
	facet normal -0.589596482748398 -0.152545232198698 -0.793161988287489
		outer loop
			vertex -174.6962 -93.03653 320.6699
			vertex -175.6888 -93.33161 321.4645
			vertex -177.5789 -86.02626 321.4645
		endloop
	endfacet
	facet normal -0.768217521152572 -0.19875953058108 -0.60855278258947
		outer loop
			vertex -175.6888 -93.33161 321.4645
			vertex -176.4505 -93.55804 322.5
			vertex -177.5789 -86.02626 321.4645
		endloop
	endfacet
	facet normal -0.768234422077686 -0.198759146564192 -0.60853157222287
		outer loop
			vertex -176.4505 -93.55804 322.5
			vertex -178.3548 -86.19763 322.5
			vertex -177.5789 -86.02626 321.4645
		endloop
	endfacet
	facet normal -0.781839942371067 -0.136322812800411 -0.608393289923048
		outer loop
			vertex -179.1989 -76.73522 321.4645
			vertex -177.5789 -86.02626 321.4645
			vertex -178.3548 -86.19763 322.5
		endloop
	endfacet
	facet normal -0.781843861946617 -0.136322616054495 -0.608388296968685
		outer loop
			vertex -179.987 -76.83656 322.5
			vertex -179.1989 -76.73522 321.4645
			vertex -178.3548 -86.19763 322.5
		endloop
	endfacet
	facet normal -0.910293738858867 -0.158719189212924 -0.382326467786285
		outer loop
			vertex -178.8425 -86.30535 323.7059
			vertex -179.987 -76.83656 322.5
			vertex -178.3548 -86.19763 322.5
		endloop
	endfacet
	facet normal -0.79089749907234 -0.065914856939234 -0.608388344395089
		outer loop
			vertex -179.9822 -67.33658 321.4645
			vertex -179.1989 -76.73522 321.4645
			vertex -179.987 -76.83656 322.5
		endloop
	endfacet
	facet normal -0.607069704089446 -0.0505943093057358 -0.793036310797071
		outer loop
			vertex -179.1989 -76.73522 321.4645
			vertex -179.9822 -67.33658 321.4645
			vertex -178.9475 -67.29682 320.6699
		endloop
	endfacet
	facet normal -0.607072222160419 -0.0505940811799731 -0.793034397760126
		outer loop
			vertex -178.9475 -67.29682 320.6699
			vertex -178.1719 -76.60315 320.6699
			vertex -179.1989 -76.73522 321.4645
		endloop
	endfacet
	facet normal -0.600121387511944 -0.104645407808301 -0.793034462602587
		outer loop
			vertex -176.5677 -85.80293 320.6699
			vertex -179.1989 -76.73522 321.4645
			vertex -178.1719 -76.60315 320.6699
		endloop
	endfacet
	facet normal -0.377304070821824 -0.065791920068998 -0.9237494581297
		outer loop
			vertex -176.9758 -76.44934 320.1704
			vertex -176.5677 -85.80293 320.6699
			vertex -178.1719 -76.60315 320.6699
		endloop
	endfacet
	facet normal -0.381674232270871 -0.0318074653470989 -0.923749460388819
		outer loop
			vertex -177.7424 -67.25051 320.1704
			vertex -176.9758 -76.44934 320.1704
			vertex -178.1719 -76.60315 320.6699
		endloop
	endfacet
	facet normal -0.130229261713406 -0.0108528749883951 -0.991424507715069
		outer loop
			vertex -177.7424 -67.25051 320.1704
			vertex -176.47815131 -67.70762322 320.00933763
			vertex -176.9758 -76.44934 320.1704
		endloop
	endfacet
	facet normal -0.381663028527909 -0.0318082256836202 -0.923754063284035
		outer loop
			vertex -178.1719 -76.60315 320.6699
			vertex -178.9475 -67.29682 320.6699
			vertex -177.7424 -67.25051 320.1704
		endloop
	endfacet
	facet normal -0.38286714793723 -0.00100052887308979 -0.92380287181432
		outer loop
			vertex -177.7424 -67.25051 320.1704
			vertex -178.9475 -67.29682 320.6699
			vertex -177.7617 -59.86508 320.1704
		endloop
	endfacet
	facet normal -0.130633990690698 -0.000341379719302569 -0.991430604700152
		outer loop
			vertex -177.7617 -59.86508 320.1704
			vertex -176.52015969 -67.20354293 320.00933763
			vertex -177.7424 -67.25051 320.1704
		endloop
	endfacet
	facet normal -0.382874045253193 -0.000999236307751964 -0.923800014612609
		outer loop
			vertex -178.967 -59.82507 320.6699
			vertex -177.7617 -59.86508 320.1704
			vertex -178.9475 -67.29682 320.6699
		endloop
	endfacet
	facet normal -0.38169233426848 0.0332438324139521 -0.92369140386122
		outer loop
			vertex -177.7617 -59.86508 320.1704
			vertex -178.967 -59.82507 320.6699
			vertex -177.9948 -48.66266 320.6699
		endloop
	endfacet
	facet normal -0.381711712814159 0.0332430733406974 -0.923683423243779
		outer loop
			vertex -177.9948 -48.66266 320.6699
			vertex -176.8008 -48.8316 320.1704
			vertex -177.7617 -59.86508 320.1704
		endloop
	endfacet
	facet normal -0.13024352348697 0.0113428403113639 -0.991417149621374
		outer loop
			vertex -176.8008 -48.8316 320.1704
			vertex -175.64236876 -49.60758107 320.00933763
			vertex -177.7617 -59.86508 320.1704
		endloop
	endfacet
	facet normal -0.377451920367594 0.0637828384746418 -0.923829961262858
		outer loop
			vertex -176.8008 -48.8316 320.1704
			vertex -177.9948 -48.66266 320.6699
			vertex -177.061 -43.13665 320.6699
		endloop
	endfacet
	facet normal -0.377455277314366 0.0637825664454165 -0.923828608479501
		outer loop
			vertex -176.8008 -48.8316 320.1704
			vertex -177.061 -43.13665 320.6699
			vertex -175.8778 -43.36943 320.1704
		endloop
	endfacet
	facet normal -0.128771971062512 0.0217599469241526 -0.991435466471991
		outer loop
			vertex -175.8778 -43.36943 320.1704
			vertex -175.58971307 -49.00296507 320.00933763
			vertex -176.8008 -48.8316 320.1704
		endloop
	endfacet
	facet normal -0.370750629500837 0.0973956529787319 -0.92361142127281
		outer loop
			vertex -177.061 -43.13665 320.6699
			vertex -172.5954 -30.8745 320.1704
			vertex -175.8778 -43.36943 320.1704
		endloop
	endfacet
	facet normal -0.126507200797512 0.0332332582813791 -0.99140883528965
		outer loop
			vertex -172.5954 -30.8745 320.1704
			vertex -171.61399515 -31.94342547 320.00933763
			vertex -175.8778 -43.36943 320.1704
		endloop
	endfacet
	facet normal -0.370736086576116 0.0973900951030827 -0.923617844936985
		outer loop
			vertex -172.5954 -30.8745 320.1704
			vertex -177.061 -43.13665 320.6699
			vertex -173.7403 -30.4957 320.6699
		endloop
	endfacet
	facet normal -0.361143507383873 0.126705159889116 -0.923862094433984
		outer loop
			vertex -172.5954 -30.8745 320.1704
			vertex -173.7403 -30.4957 320.6699
			vertex -172.5033 -26.96992 320.6699
		endloop
	endfacet
	facet normal -0.361146287637692 0.126705087701642 -0.923861017510769
		outer loop
			vertex -172.5954 -30.8745 320.1704
			vertex -172.5033 -26.96992 320.6699
			vertex -171.3727 -27.38945 320.1704
		endloop
	endfacet
	facet normal -0.123205343537256 0.0432255415397207 -0.991439355625176
		outer loop
			vertex -171.3727 -27.38945 320.1704
			vertex -171.4341252 -31.25872449 320.00933763
			vertex -172.5954 -30.8745 320.1704
		endloop
	endfacet
	facet normal -0.349093285711619 0.158798764828726 -0.923534964232506
		outer loop
			vertex -171.3727 -27.38945 320.1704
			vertex -172.5033 -26.96992 320.6699
			vertex -166.3197 -13.37628 320.6699
		endloop
	endfacet
	facet normal -0.34911061630554 0.158804743895495 -0.923527385029298
		outer loop
			vertex -166.3197 -13.37628 320.6699
			vertex -165.2606 -13.95283 320.1704
			vertex -171.3727 -27.38945 320.1704
		endloop
	endfacet
	facet normal -0.119131777892126 0.0541911090478455 -0.991398478512261
		outer loop
			vertex -165.2606 -13.95283 320.1704
			vertex -164.52121647 -15.27394919 320.00933763
			vertex -171.3727 -27.38945 320.1704
		endloop
	endfacet
	facet normal -0.33448157845056 0.185974453316064 -0.923869891484192
		outer loop
			vertex -165.2606 -13.95283 320.1704
			vertex -166.3197 -13.37628 320.6699
			vertex -165.4118 -11.74339 320.6699
		endloop
	endfacet
	facet normal -0.555005090614566 0.252465820657618 -0.792609840206133
		outer loop
			vertex -166.3197 -13.37628 320.6699
			vertex -172.5033 -26.96992 320.6699
			vertex -173.4742 -26.60966 321.4645
		endloop
	endfacet
	facet normal -0.55502463957743 0.252477433695164 -0.792592451980617
		outer loop
			vertex -167.2292 -12.88119 321.4645
			vertex -166.3197 -13.37628 320.6699
			vertex -173.4742 -26.60966 321.4645
		endloop
	endfacet
	facet normal -0.722842672852067 0.32881686684395 -0.607764706430875
		outer loop
			vertex -173.4742 -26.60966 321.4645
			vertex -174.2191 -26.33323 322.5
			vertex -167.2292 -12.88119 321.4645
		endloop
	endfacet
	facet normal -0.722823267337438 0.328804491494842 -0.607794480534702
		outer loop
			vertex -167.2292 -12.88119 321.4645
			vertex -174.2191 -26.33323 322.5
			vertex -167.9271 -12.50129 322.5
		endloop
	endfacet
	facet normal -0.693383459866469 0.385523709652939 -0.608761732436461
		outer loop
			vertex -167.9271 -12.50129 322.5
			vertex -166.3123 -11.2321 321.4645
			vertex -167.2292 -12.88119 321.4645
		endloop
	endfacet
	facet normal -0.841254887568336 0.382677755439943 -0.381900444663049
		outer loop
			vertex -168.3659 -12.26247 323.7059
			vertex -167.9271 -12.50129 322.5
			vertex -174.2191 -26.33323 322.5
		endloop
	endfacet
	facet normal -0.841277197827205 0.382682423032949 -0.381846617789967
		outer loop
			vertex -174.2191 -26.33323 322.5
			vertex -174.6874 -26.15946 323.7059
			vertex -168.3659 -12.26247 323.7059
		endloop
	endfacet
	facet normal -0.90250523984332 0.410533998633484 -0.130177294569195
		outer loop
			vertex -174.8471 -26.10019 325
			vertex -168.3659 -12.26247 323.7059
			vertex -174.6874 -26.15946 323.7059
		endloop
	endfacet
	facet normal -0.935542465481471 0.328228639476612 -0.130484694536111
		outer loop
			vertex -174.6874 -26.15946 323.7059
			vertex -175.952 -29.76392 323.7059
			vertex -174.8471 -26.10019 325
		endloop
	endfacet
	facet normal -0.961104633821815 0.270956368874429 0.0534839135873577
		outer loop
			vertex -174.8471 -26.10019 325
			vertex -175.952 -29.76392 323.7059
			vertex -179.514 -42.65407 325
		endloop
	endfacet
	facet normal -0.958939468396931 0.251907268515296 -0.130298979350469
		outer loop
			vertex -179.3468 -42.68696 323.7059
			vertex -179.514 -42.65407 325
			vertex -175.952 -29.76392 323.7059
		endloop
	endfacet
	facet normal -0.89382030942161 0.234800881713938 -0.382039003783403
		outer loop
			vertex -178.8567 -42.78338 322.5
			vertex -179.3468 -42.68696 323.7059
			vertex -175.952 -29.76392 323.7059
		endloop
	endfacet
	facet normal -0.893823637378627 0.234800901868573 -0.382031205197882
		outer loop
			vertex -178.8567 -42.78338 322.5
			vertex -175.952 -29.76392 323.7059
			vertex -175.4778 -29.92082 322.5
		endloop
	endfacet
	facet normal -0.767885078613678 0.201717767857079 -0.607998723825325
		outer loop
			vertex -178.8567 -42.78338 322.5
			vertex -175.4778 -29.92082 322.5
			vertex -178.0771 -42.93676 321.4645
		endloop
	endfacet
	facet normal -0.782374872635355 0.132213141148145 -0.608612556538684
		outer loop
			vertex -178.8567 -42.78338 322.5
			vertex -178.0771 -42.93676 321.4645
			vertex -179.0202 -48.51758 321.4645
		endloop
	endfacet
	facet normal -0.78237780793907 0.132212565998869 -0.608608908114604
		outer loop
			vertex -179.8069 -48.40626 322.5
			vertex -178.8567 -42.78338 322.5
			vertex -179.0202 -48.51758 321.4645
		endloop
	endfacet
	facet normal -0.790795573324959 0.0688649315393161 -0.608194033523624
		outer loop
			vertex -180.0019 -59.79072 321.4645
			vertex -179.8069 -48.40626 322.5
			vertex -179.0202 -48.51758 321.4645
		endloop
	endfacet
	facet normal -0.606990912308504 0.0528586515037753 -0.79294892353549
		outer loop
			vertex -179.0202 -48.51758 321.4645
			vertex -177.9948 -48.66266 320.6699
			vertex -180.0019 -59.79072 321.4645
		endloop
	endfacet
	facet normal -0.790757851222256 0.06886870748004 -0.608242650477907
		outer loop
			vertex -180.7961 -59.76436 322.5
			vertex -179.8069 -48.40626 322.5
			vertex -180.0019 -59.79072 321.4645
		endloop
	endfacet
	facet normal -0.793512941360162 -0.00207162668599675 -0.608549850264395
		outer loop
			vertex -180.7961 -59.76436 322.5
			vertex -180.0019 -59.79072 321.4645
			vertex -179.9822 -67.33658 321.4645
		endloop
	endfacet
	facet normal -0.609031797751948 -0.0015900011947894 -0.79314421212238
		outer loop
			vertex -178.967 -59.82507 320.6699
			vertex -179.9822 -67.33658 321.4645
			vertex -180.0019 -59.79072 321.4645
		endloop
	endfacet
	facet normal -0.920582607105954 0.0801754091748791 -0.382229730996485
		outer loop
			vertex -180.7961 -59.76436 322.5
			vertex -180.3015 -48.33628 323.7059
			vertex -179.8069 -48.40626 322.5
		endloop
	endfacet
	facet normal -0.911004216292924 0.153954055584541 -0.382582627239642
		outer loop
			vertex -179.8069 -48.40626 322.5
			vertex -180.3015 -48.33628 323.7059
			vertex -179.3468 -42.68696 323.7059
		endloop
	endfacet
	facet normal -0.600375327788678 0.101457128457376 -0.793256526520785
		outer loop
			vertex -177.061 -43.13665 320.6699
			vertex -179.0202 -48.51758 321.4645
			vertex -178.0771 -42.93676 321.4645
		endloop
	endfacet
	facet normal -0.767857440030864 0.20171509584043 -0.608034515384887
		outer loop
			vertex -178.0771 -42.93676 321.4645
			vertex -175.4778 -29.92082 322.5
			vertex -174.7234 -30.17042 321.4645
		endloop
	endfacet
	facet normal -0.589521340651756 0.154866447246728 -0.792767918393102
		outer loop
			vertex -173.7403 -30.4957 320.6699
			vertex -178.0771 -42.93676 321.4645
			vertex -174.7234 -30.17042 321.4645
		endloop
	endfacet
	facet normal -0.574504090762555 0.201549812450316 -0.793298634058028
		outer loop
			vertex -173.7403 -30.4957 320.6699
			vertex -174.7234 -30.17042 321.4645
			vertex -173.4742 -26.60966 321.4645
		endloop
	endfacet
	facet normal -0.748641275648106 0.26265954963033 -0.608725062227578
		outer loop
			vertex -175.4778 -29.92082 322.5
			vertex -174.2191 -26.33323 322.5
			vertex -174.7234 -30.17042 321.4645
		endloop
	endfacet
	facet normal -0.871805392951222 0.305871475867562 -0.382619912016827
		outer loop
			vertex -174.2191 -26.33323 322.5
			vertex -175.4778 -29.92082 322.5
			vertex -175.952 -29.76392 323.7059
		endloop
	endfacet
	facet normal -0.911013456561337 0.153950464250456 -0.382562068847962
		outer loop
			vertex -178.8567 -42.78338 322.5
			vertex -179.8069 -48.40626 322.5
			vertex -179.3468 -42.68696 323.7059
		endloop
	endfacet
	facet normal -0.906210954989334 0.422051046038499 -0.0255855348806287
		outer loop
			vertex -174.8471 -26.10019 325
			vertex -167.5858 -10.50902 325
			vertex -168.3659 -12.26247 323.7059
		endloop
	endfacet
	facet normal -0.871802288388534 0.305865836740078 -0.382631493575486
		outer loop
			vertex -174.2191 -26.33323 322.5
			vertex -175.952 -29.76392 323.7059
			vertex -174.6874 -26.15946 323.7059
		endloop
	endfacet
	facet normal -0.80743869117304 0.448961315705594 -0.382722480391041
		outer loop
			vertex -167.9271 -12.50129 322.5
			vertex -168.3659 -12.26247 323.7059
			vertex -167.4377 -10.59314 323.7059
		endloop
	endfacet
	facet normal -0.748675658864566 0.262653375418062 -0.608685437812674
		outer loop
			vertex -174.2191 -26.33323 322.5
			vertex -173.4742 -26.60966 321.4645
			vertex -174.7234 -30.17042 321.4645
		endloop
	endfacet
	facet normal -0.532072368170446 0.295834159673202 -0.793335455529339
		outer loop
			vertex -166.3197 -13.37628 320.6699
			vertex -167.2292 -12.88119 321.4645
			vertex -166.3123 -11.2321 321.4645
		endloop
	endfacet
	facet normal -0.574476651731335 0.201551888714457 -0.793317977088121
		outer loop
			vertex -173.4742 -26.60966 321.4645
			vertex -172.5033 -26.96992 320.6699
			vertex -173.7403 -30.4957 320.6699
		endloop
	endfacet
	facet normal -0.589501047693941 0.154858308044671 -0.792784598234153
		outer loop
			vertex -178.0771 -42.93676 321.4645
			vertex -173.7403 -30.4957 320.6699
			vertex -177.061 -43.13665 320.6699
		endloop
	endfacet
	facet normal -0.600362372663666 0.101450844930307 -0.793267135051352
		outer loop
			vertex -177.9948 -48.66266 320.6699
			vertex -179.0202 -48.51758 321.4645
			vertex -177.061 -43.13665 320.6699
		endloop
	endfacet
	facet normal -0.607042976163022 0.052870946455622 -0.792908246969363
		outer loop
			vertex -180.0019 -59.79072 321.4645
			vertex -177.9948 -48.66266 320.6699
			vertex -178.967 -59.82507 320.6699
		endloop
	endfacet
	facet normal -0.609034225380504 -0.00158947601230411 -0.793142349065523
		outer loop
			vertex -178.967 -59.82507 320.6699
			vertex -178.9475 -67.29682 320.6699
			vertex -179.9822 -67.33658 321.4645
		endloop
	endfacet
	facet normal -0.600082087307629 -0.104631234117856 -0.793066071232084
		outer loop
			vertex -176.5677 -85.80293 320.6699
			vertex -177.5789 -86.02626 321.4645
			vertex -179.1989 -76.73522 321.4645
		endloop
	endfacet
	facet normal -0.894511134575052 -0.231429710243217 -0.382478913586088
		outer loop
			vertex -176.4505 -93.55804 322.5
			vertex -176.9293 -93.70037 323.7059
			vertex -178.3548 -86.19763 322.5
		endloop
	endfacet
	facet normal -0.870353257469003 -0.310476295792872 -0.382216793147334
		outer loop
			vertex -172.6199 -104.2963 322.5
			vertex -176.9293 -93.70037 323.7059
			vertex -176.4505 -93.55804 322.5
		endloop
	endfacet
	facet normal -0.747605915504673 -0.266689316512378 -0.608245183754529
		outer loop
			vertex -176.4505 -93.55804 322.5
			vertex -175.6888 -93.33161 321.4645
			vertex -172.6199 -104.2963 322.5
		endloop
	endfacet
	facet normal -0.74762903438777 -0.266692952971325 -0.608215172267057
		outer loop
			vertex -172.6199 -104.2963 322.5
			vertex -175.6888 -93.33161 321.4645
			vertex -171.8869 -103.9896 321.4645
		endloop
	endfacet
	facet normal -0.723461051184784 -0.32584687971568 -0.608627898143161
		outer loop
			vertex -171.8869 -103.9896 321.4645
			vertex -170.278 -109.4959 322.5
			vertex -172.6199 -104.2963 322.5
		endloop
	endfacet
	facet normal -0.842412005390258 -0.379422393150137 -0.382597256590514
		outer loop
			vertex -173.0807 -104.4892 323.7059
			vertex -172.6199 -104.2963 322.5
			vertex -170.278 -109.4959 322.5
		endloop
	endfacet
	facet normal -0.723437350523545 -0.325845401224068 -0.608656860939397
		outer loop
			vertex -171.8869 -103.9896 321.4645
			vertex -169.5625 -109.1502 321.4645
			vertex -170.278 -109.4959 322.5
		endloop
	endfacet
	facet normal -0.573878997283373 -0.204713136320418 -0.792940999252081
		outer loop
			vertex -170.9316 -103.5898 320.6699
			vertex -171.8869 -103.9896 321.4645
			vertex -175.6888 -93.33161 321.4645
		endloop
	endfacet
	facet normal -0.555172474695377 -0.250044902252722 -0.793259774725807
		outer loop
			vertex -170.9316 -103.5898 320.6699
			vertex -168.6301 -108.6998 320.6699
			vertex -171.8869 -103.9896 321.4645
		endloop
	endfacet
	facet normal -0.589584557712029 -0.15253919207007 -0.793172014250453
		outer loop
			vertex -176.5677 -85.80293 320.6699
			vertex -174.6962 -93.03653 320.6699
			vertex -177.5789 -86.02626 321.4645
		endloop
	endfacet
	facet normal -0.37732291035684 -0.0657923295473151 -0.923741733761435
		outer loop
			vertex -176.5677 -85.80293 320.6699
			vertex -176.9758 -76.44934 320.1704
			vertex -175.3902 -85.54285 320.1704
		endloop
	endfacet
	facet normal -0.128728749211576 -0.022445931741415 -0.99142578606504
		outer loop
			vertex -176.9758 -76.44934 320.1704
			vertex -174.19574862 -85.27905366 320.00933763
			vertex -175.3902 -85.54285 320.1704
		endloop
	endfacet
	facet normal -0.0958995445021062 -0.0303873513745118 -0.994927075840602
		outer loop
			vertex -173.5403 -92.6929 320.1704
			vertex -174.09437723 -85.67086428 320.00933763
			vertex -168.89472819 -102.08045419 320.00933763
		endloop
	endfacet
	facet normal -0.128728743128614 -0.022445929810979 -0.99142578689857
		outer loop
			vertex -176.9758 -76.44934 320.1704
			vertex -174.28263681 -84.78074472 320.00933763
			vertex -174.19574862 -85.27905366 320.00933763
		endloop
	endfacet
	facet normal -0.0988174780306652 -0.0127074129865329 -0.9950244357255
		outer loop
			vertex -176.9758 -76.44934 320.1704
			vertex -176.47815131 -67.70762322 320.00933763
			vertex -174.28263681 -84.78074472 320.00933763
		endloop
	endfacet
	facet normal -0.123130770226485 -0.0439233374199844 -0.99141795114539
		outer loop
			vertex -173.5403 -92.6929 320.1704
			vertex -168.89472819 -102.08045419 320.00933763
			vertex -168.69081822 -102.65207723 320.00933763
		endloop
	endfacet
	facet normal -0.119070692231983 -0.0536312017439344 -0.991436263433458
		outer loop
			vertex -169.8192 -103.1243 320.1704
			vertex -168.69081822 -102.65207723 320.00933763
			vertex -168.56615207 -102.92885799 320.00933763
		endloop
	endfacet
	facet normal -0.130229261671186 -0.010852874869212 -0.99142450772192
		outer loop
			vertex -177.7424 -67.25051 320.1704
			vertex -176.52015969 -67.20354293 320.00933763
			vertex -176.47815131 -67.70762322 320.00933763
		endloop
	endfacet
	facet normal -0.130633995837787 -0.000341380604992081 -0.991430604021651
		outer loop
			vertex -177.7617 -59.86508 320.1704
			vertex -176.5212173 -66.79883388 320.00933763
			vertex -176.52015969 -67.20354293 320.00933763
		endloop
	endfacet
	facet normal -0.10047046489283 0.00513623540762661 -0.994926783622823
		outer loop
			vertex -177.7617 -59.86508 320.1704
			vertex -175.64236876 -49.60758107 320.00933763
			vertex -176.5212173 -66.79883388 320.00933763
		endloop
	endfacet
	facet normal -0.0916290011624053 -0.0483833943930488 -0.994617098834012
		outer loop
			vertex -167.5442 -108.1752 320.1704
			vertex -168.56615207 -102.92885799 320.00933763
			vertex -160.52844042 -118.15076417 320.00933763
		endloop
	endfacet
	facet normal -0.349014119846756 -0.157192954369337 -0.923839552760236
		outer loop
			vertex -168.6301 -108.6998 320.6699
			vertex -170.9316 -103.5898 320.6699
			vertex -167.5442 -108.1752 320.1704
		endloop
	endfacet
	facet normal -0.55520177751851 -0.250069955366435 -0.793231368305185
		outer loop
			vertex -168.6301 -108.6998 320.6699
			vertex -169.5625 -109.1502 321.4645
			vertex -171.8869 -103.9896 321.4645
		endloop
	endfacet
	facet normal -0.504779104821399 -0.340332242911257 -0.793329704328976
		outer loop
			vertex -163.0881 -120.6528 321.4645
			vertex -162.2192 -120.0893 320.6699
			vertex -160.9786 -123.7816 321.4645
		endloop
	endfacet
	facet normal -0.691834933159015 -0.389418322185845 -0.608044238198852
		outer loop
			vertex -163.7547 -121.0851 322.5
			vertex -170.278 -109.4959 322.5
			vertex -169.5625 -109.1502 321.4645
		endloop
	endfacet
	facet normal -0.842413687124691 -0.379424801767934 -0.382591165016063
		outer loop
			vertex -170.7278 -109.7132 323.7059
			vertex -173.0807 -104.4892 323.7059
			vertex -170.278 -109.4959 322.5
		endloop
	endfacet
	facet normal -0.932509465838863 -0.361145533159304 0
		outer loop
			vertex -177.0926 -93.74892 325
			vertex -170.8812 -109.7873 325
			vertex -177.0926 -93.74892 350
		endloop
	endfacet
	facet normal -0.870344792025892 -0.310470084948123 -0.382241114148796
		outer loop
			vertex -173.0807 -104.4892 323.7059
			vertex -176.9293 -93.70037 323.7059
			vertex -172.6199 -104.2963 322.5
		endloop
	endfacet
	facet normal -0.894526494579954 -0.23142710762518 -0.382444563761526
		outer loop
			vertex -176.9293 -93.70037 323.7059
			vertex -178.8425 -86.30535 323.7059
			vertex -178.3548 -86.19763 322.5
		endloop
	endfacet
	facet normal -0.910258537292145 -0.158725284756653 -0.382407739547312
		outer loop
			vertex -179.987 -76.83656 322.5
			vertex -178.8425 -86.30535 323.7059
			vertex -180.4825 -76.90027 323.7059
		endloop
	endfacet
	facet normal -0.790898656607593 -0.065914694253713 -0.608386857236203
		outer loop
			vertex -179.987 -76.83656 322.5
			vertex -180.7762 -67.36709 322.5
			vertex -179.9822 -67.33658 321.4645
		endloop
	endfacet
	facet normal -0.793531924199527 -0.00207705459638525 -0.608525078464643
		outer loop
			vertex -180.7762 -67.36709 322.5
			vertex -180.7961 -59.76436 322.5
			vertex -179.9822 -67.33658 321.4645
		endloop
	endfacet
	facet normal -0.990182957780014 -0.0469274193707221 0.131664450149715
		outer loop
			vertex -181.2754 -67.38627 323.7059
			vertex -180.6514 -76.922 325
			vertex -181.4656 -59.74213 325
		endloop
	endfacet
	facet normal -0.998878855435762 -0.0473395412244561 0
		outer loop
			vertex -181.4656 -59.74213 325
			vertex -180.6514 -76.922 325
			vertex -181.4656 -59.74213 350
		endloop
	endfacet
	facet normal -0.920596790858885 0.0801724829365749 -0.382196182137011
		outer loop
			vertex -180.7961 -59.76436 322.5
			vertex -181.2953 -59.74779 323.7059
			vertex -180.3015 -48.33628 323.7059
		endloop
	endfacet
	facet normal -0.977586562836589 0.165206058700887 -0.130504675509587
		outer loop
			vertex -180.3015 -48.33628 323.7059
			vertex -179.514 -42.65407 325
			vertex -179.3468 -42.68696 323.7059
		endloop
	endfacet
	facet normal -0.962482223849129 0.271344741564002 0
		outer loop
			vertex -174.8471 -26.10019 325
			vertex -179.514 -42.65407 325
			vertex -174.8471 -26.10019 350
		endloop
	endfacet
	facet normal -0.993541335374556 0.11347076672934 0
		outer loop
			vertex -181.4656 -59.74213 325
			vertex -181.4656 -59.74213 350
			vertex -179.514 -42.65407 350
		endloop
	endfacet
	facet normal -0.998878855435762 -0.0473395412244561 0
		outer loop
			vertex -181.4656 -59.74213 350
			vertex -180.6514 -76.922 325
			vertex -180.6514 -76.922 350
		endloop
	endfacet
	facet normal -0.978358423001037 -0.206917365493868 0
		outer loop
			vertex -177.0926 -93.74892 350
			vertex -180.6514 -76.922 350
			vertex -177.0926 -93.74892 325
		endloop
	endfacet
	facet normal -0.932509465838863 -0.361145533159304 0
		outer loop
			vertex -170.8812 -109.7873 350
			vertex -177.0926 -93.74892 350
			vertex -170.8812 -109.7873 325
		endloop
	endfacet
	facet normal -0.862518950745644 -0.506024761849292 0
		outer loop
			vertex -170.8812 -109.7873 350
			vertex -162.178 -124.6219 325
			vertex -162.178 -124.6219 350
		endloop
	endfacet
	facet normal -0.822049563372027 -0.554244960098707 -0.130564311988551
		outer loop
			vertex -162.0384 -124.5241 323.7059
			vertex -162.178 -124.6219 325
			vertex -164.1738 -121.3569 323.7059
		endloop
	endfacet
	facet normal -0.766049621532528 -0.516488495144152 -0.382632476057116
		outer loop
			vertex -161.6293 -124.2375 322.5
			vertex -162.0384 -124.5241 323.7059
			vertex -164.1738 -121.3569 323.7059
		endloop
	endfacet
	facet normal -0.657862606816952 -0.443544224328931 -0.608675045994537
		outer loop
			vertex -160.9786 -123.7816 321.4645
			vertex -161.6293 -124.2375 322.5
			vertex -163.0881 -120.6528 321.4645
		endloop
	endfacet
	facet normal -0.50477958219548 -0.340332329908626 -0.793329363264416
		outer loop
			vertex -160.9786 -123.7816 321.4645
			vertex -162.2192 -120.0893 320.6699
			vertex -160.1304 -123.1874 320.6699
		endloop
	endfacet
	facet normal -0.317358619793368 -0.213962905798057 -0.923852467326521
		outer loop
			vertex -160.1304 -123.1874 320.6699
			vertex -161.2074 -119.4332 320.1704
			vertex -159.1428 -122.4955 320.1704
		endloop
	endfacet
	facet normal -0.108267564606915 -0.0729938980137278 -0.991438361829342
		outer loop
			vertex -161.2074 -119.4332 320.1704
			vertex -160.06805794 -118.93549234 320.00933763
			vertex -159.1428 -122.4955 320.1704
		endloop
	endfacet
	facet normal 0 0 -1
		outer loop
			vertex -175.64236876 -49.60758107 320.00933763
			vertex -160.06805794 -118.93549234 320.00933763
			vertex -160.18119452 -118.76768349 320.00933763
		endloop
	endfacet
	facet normal -0.130243523631833 0.0113428400916755 -0.991417149604857
		outer loop
			vertex -176.8008 -48.8316 320.1704
			vertex -175.58971307 -49.00296507 320.00933763
			vertex -175.64236876 -49.60758107 320.00933763
		endloop
	endfacet
	facet normal -0.128771963213287 0.0217599473544223 -0.991435467482039
		outer loop
			vertex -175.8778 -43.36943 320.1704
			vertex -175.53913423 -48.70364741 320.00933763
			vertex -175.58971307 -49.00296507 320.00933763
		endloop
	endfacet
	facet normal -0.100884717747611 0.0236265694824039 -0.994617544053732
		outer loop
			vertex -175.8778 -43.36943 320.1704
			vertex -171.61399515 -31.94342547 320.00933763
			vertex -175.53913423 -48.70364741 320.00933763
		endloop
	endfacet
	facet normal -0.12650720156942 0.0332332575614675 -0.991408835215285
		outer loop
			vertex -172.5954 -30.8745 320.1704
			vertex -171.4341252 -31.25872449 320.00933763
			vertex -171.61399515 -31.94342547 320.00933763
		endloop
	endfacet
	facet normal -0.123205336950463 0.0432255414693546 -0.991439356446779
		outer loop
			vertex -171.3727 -27.38945 320.1704
			vertex -171.36712331 -31.06774966 320.00933763
			vertex -171.4341252 -31.25872449 320.00933763
		endloop
	endfacet
	facet normal -0.10006631063869 0.0433742747197675 -0.994034911744902
		outer loop
			vertex -171.3727 -27.38945 320.1704
			vertex -164.52121647 -15.27394919 320.00933763
			vertex -171.36712331 -31.06774966 320.00933763
		endloop
	endfacet
	facet normal -0.119131777823938 0.0541911090867476 -0.991398478518328
		outer loop
			vertex -165.2606 -13.95283 320.1704
			vertex -164.18628375 -14.53764519 320.00933763
			vertex -164.52121647 -15.27394919 320.00933763
		endloop
	endfacet
	facet normal -0.11410268006965 0.0634414351089235 -0.991441255300708
		outer loop
			vertex -164.3632 -12.33881 320.1704
			vertex -164.18628375 -14.53764519 320.00933763
			vertex -165.2606 -13.95283 320.1704
		endloop
	endfacet
	facet normal -0.114102677618972 0.0634414353257458 -0.991441255568876
		outer loop
			vertex -164.3632 -12.33881 320.1704
			vertex -164.13710775 -14.44919963 320.00933763
			vertex -164.18628375 -14.53764519 320.00933763
		endloop
	endfacet
	facet normal -0.334483985600318 0.18597410730829 -0.923869089637602
		outer loop
			vertex -165.2606 -13.95283 320.1704
			vertex -165.4118 -11.74339 320.6699
			vertex -164.3632 -12.33881 320.1704
		endloop
	endfacet
	facet normal -0.532069301854948 0.295834819953649 -0.793337265812328
		outer loop
			vertex -166.3197 -13.37628 320.6699
			vertex -166.3123 -11.2321 321.4645
			vertex -165.4118 -11.74339 320.6699
		endloop
	endfacet
	facet normal -0.693382298960552 0.385518421553613 -0.60876640358268
		outer loop
			vertex -167.0033 -10.83977 322.5
			vertex -166.3123 -11.2321 321.4645
			vertex -167.9271 -12.50129 322.5
		endloop
	endfacet
	facet normal -0.807462440574305 0.44894662875111 -0.382689602151404
		outer loop
			vertex -167.9271 -12.50129 322.5
			vertex -167.4377 -10.59314 323.7059
			vertex -167.0033 -10.83977 322.5
		endloop
	endfacet
	facet normal -0.866508464591425 0.481805968163134 -0.13048405969235
		outer loop
			vertex -167.4377 -10.59314 323.7059
			vertex -168.3659 -12.26247 323.7059
			vertex -167.5858 -10.50902 325
		endloop
	endfacet
	facet normal -0.906507712418934 0.42218925534053 0
		outer loop
			vertex -167.5858 -10.50902 325
			vertex -174.8471 -26.10019 325
			vertex -167.5858 -10.50902 350
		endloop
	endfacet
	facet normal -0.906507712418934 0.42218925534053 0
		outer loop
			vertex -167.5858 -10.50902 350
			vertex -174.8471 -26.10019 325
			vertex -174.8471 -26.10019 350
		endloop
	endfacet
	facet normal 0 0 1
		outer loop
			vertex -174.8471 -26.10019 350
			vertex -158.70073178 -32.89607044 350
			vertex -158.70073178 -19.22361473 350
		endloop
	endfacet
	facet normal 0 0 1
		outer loop
			vertex -174.8471 -26.10019 350
			vertex -158.70073178 -19.22361473 350
			vertex -167.5858 -10.50902 350
		endloop
	endfacet
	facet normal 0 0 1
		outer loop
			vertex -167.5858 -10.50902 350
			vertex -158.70073178 -19.22361473 350
			vertex -158.70073178 -16.9253425 350
		endloop
	endfacet
	facet normal 0 0 1
		outer loop
			vertex -167.5858 -10.50902 350
			vertex -158.70073178 -16.9253425 350
			vertex -158.70073178 2.56424533 350
		endloop
	endfacet
	facet normal -0.827066272301091 0.562104421991126 0
		outer loop
			vertex -167.5858 -10.50902 350
			vertex -158.70073178 2.56424533 350
			vertex -158.70073178 2.56424533 347.97616863
		endloop
	endfacet
	facet normal -0.827066272301091 0.562104421991126 0
		outer loop
			vertex -167.5858 -10.50902 350
			vertex -158.70073178 2.56424533 347.97616863
			vertex -167.5858 -10.50902 325
		endloop
	endfacet
	facet normal -0.827066272301091 0.562104421991126 0
		outer loop
			vertex -167.5858 -10.50902 325
			vertex -158.70073178 2.56424533 347.97616863
			vertex -158.70073178 2.56424533 325
		endloop
	endfacet
	facet normal -0.820032362930163 0.557323920483934 -0.130142120021116
		outer loop
			vertex -167.5858 -10.50902 325
			vertex -158.70073178 2.56424533 325
			vertex -158.70073178 2.29028318 323.82677753
		endloop
	endfacet
	facet normal -0.82003674429822 0.557333095818671 -0.130075202502058
		outer loop
			vertex -167.5858 -10.50902 325
			vertex -158.70073178 2.29028318 323.82677753
			vertex -158.70073178 2.26207174 323.7059
		endloop
	endfacet
	facet normal -0.82003674511865 0.557333097753696 -0.1300751890388
		outer loop
			vertex -167.5858 -10.50902 325
			vertex -158.70073178 2.26207174 323.7059
			vertex -167.4377 -10.59314 323.7059
		endloop
	endfacet
	facet normal -0.764463017749182 0.519562744397075 -0.381642305213132
		outer loop
			vertex -167.4377 -10.59314 323.7059
			vertex -158.70073178 2.26207174 323.7059
			vertex -158.70073178 2.17410488 323.58614309
		endloop
	endfacet
	facet normal -0.764463008522447 0.519562737825696 -0.381642332641277
		outer loop
			vertex -167.4377 -10.59314 323.7059
			vertex -158.70073178 2.17410488 323.58614309
			vertex -167.0033 -10.83977 322.5
		endloop
	endfacet
	facet normal -0.76448912541556 0.519573778594795 -0.381574980466589
		outer loop
			vertex -167.0033 -10.83977 322.5
			vertex -158.70073178 2.17410488 323.58614309
			vertex -158.70073178 1.3764414 322.5
		endloop
	endfacet
	facet normal -0.65691536930572 0.446462859051967 -0.607563258481841
		outer loop
			vertex -167.0033 -10.83977 322.5
			vertex -158.70073178 1.3764414 322.5
			vertex -158.70073178 0.23237773 321.65929423
		endloop
	endfacet
	facet normal -0.656930384836173 0.446476089631262 -0.60753729997966
		outer loop
			vertex -167.0033 -10.83977 322.5
			vertex -158.70073178 0.23237773 321.65929423
			vertex -158.70073178 -0.03268632 321.4645
		endloop
	endfacet
	facet normal -0.656930389663377 0.446476094158704 -0.607537291432807
		outer loop
			vertex -167.0033 -10.83977 322.5
			vertex -158.70073178 -0.03268632 321.4645
			vertex -166.3123 -11.2321 321.4645
		endloop
	endfacet
	facet normal -0.504518516070113 0.342890905992574 -0.792393143288105
		outer loop
			vertex -166.3123 -11.2321 321.4645
			vertex -158.70073178 -0.03268632 321.4645
			vertex -158.70073178 -0.44178262 321.28747247
		endloop
	endfacet
	facet normal -0.504518504508127 0.34289089765671 -0.792393154256811
		outer loop
			vertex -166.3123 -11.2321 321.4645
			vertex -158.70073178 -0.44178262 321.28747247
			vertex -165.4118 -11.74339 320.6699
		endloop
	endfacet
	facet normal -0.50453091182672 0.342897673401016 -0.792382322233067
		outer loop
			vertex -165.4118 -11.74339 320.6699
			vertex -158.70073178 -0.44178262 321.28747247
			vertex -158.70073178 -1.86889498 320.6699
		endloop
	endfacet
	facet normal -0.317391657801148 0.215710987108523 -0.923434516140103
		outer loop
			vertex -165.4118 -11.74339 320.6699
			vertex -158.70073178 -1.86889498 320.6699
			vertex -158.70073178 -2.56455867 320.50739546
		endloop
	endfacet
	facet normal -0.317391664953046 0.215710992403023 -0.923434512445163
		outer loop
			vertex -165.4118 -11.74339 320.6699
			vertex -158.70073178 -2.56455867 320.50739546
			vertex -164.3632 -12.33881 320.1704
		endloop
	endfacet
	facet normal -0.317379528371233 0.215704160221546 -0.92344027973333
		outer loop
			vertex -164.3632 -12.33881 320.1704
			vertex -158.70073178 -2.56455867 320.50739546
			vertex -158.70073178 -4.00725306 320.1704
		endloop
	endfacet
	facet normal -0.108317875145878 0.0736172758691437 -0.991386773473143
		outer loop
			vertex -164.3632 -12.33881 320.1704
			vertex -158.70073178 -4.00725306 320.1704
			vertex -158.70073178 -5.26380486 320.0770924
		endloop
	endfacet
	facet normal -0.0979467294605883 0.0652948470881592 -0.993047340831095
		outer loop
			vertex -164.3632 -12.33881 320.1704
			vertex -158.70073178 -5.26380486 320.0770924
			vertex -158.70073178 -6.29426434 320.00933763
		endloop
	endfacet
	facet normal -0.0979467266031889 0.0652948443991559 -0.993047341289734
		outer loop
			vertex -164.3632 -12.33881 320.1704
			vertex -158.70073178 -6.29426434 320.00933763
			vertex -164.13710775 -14.44919963 320.00933763
		endloop
	endfacet
	facet normal 0 0 -1
		outer loop
			vertex -164.13710775 -14.44919963 320.00933763
			vertex -158.70073178 -6.29426434 320.00933763
			vertex -158.70073178 -30.18034951 320.00933763
		endloop
	endfacet
	facet normal 0 0 -1
		outer loop
			vertex -164.13710775 -14.44919963 320.00933763
			vertex -158.70073178 -30.18034951 320.00933763
			vertex -158.70073178 -30.43284776 320.00933763
		endloop
	endfacet
	facet normal 0 0 -1
		outer loop
			vertex -164.13710775 -14.44919963 320.00933763
			vertex -158.70073178 -30.43284776 320.00933763
			vertex -158.70073178 -30.66309364 320.00933763
		endloop
	endfacet
	facet normal 0 0 -1
		outer loop
			vertex -164.13710775 -14.44919963 320.00933763
			vertex -158.70073178 -30.66309364 320.00933763
			vertex -158.70073178 -30.83717842 320.00933763
		endloop
	endfacet
	facet normal 0 0 -1
		outer loop
			vertex -164.13710775 -14.44919963 320.00933763
			vertex -158.70073178 -30.83717842 320.00933763
			vertex -164.18628375 -14.53764519 320.00933763
		endloop
	endfacet
	facet normal 0 0 -1
		outer loop
			vertex -164.18628375 -14.53764519 320.00933763
			vertex -158.70073178 -30.83717842 320.00933763
			vertex -158.70073178 -32.09924308 320.00933763
		endloop
	endfacet
	facet normal 0 0 -1
		outer loop
			vertex -164.18628375 -14.53764519 320.00933763
			vertex -158.70073178 -32.09924308 320.00933763
			vertex -164.52121647 -15.27394919 320.00933763
		endloop
	endfacet
	facet normal 0 0 -1
		outer loop
			vertex -164.52121647 -15.27394919 320.00933763
			vertex -158.70073178 -32.09924308 320.00933763
			vertex -158.70073178 -41.17807649 320.00933763
		endloop
	endfacet
	facet normal 0 0 -1
		outer loop
			vertex -164.52121647 -15.27394919 320.00933763
			vertex -158.70073178 -41.17807649 320.00933763
			vertex -158.70073178 -41.67832242 320.00933763
		endloop
	endfacet
	facet normal 0 0 -1
		outer loop
			vertex -164.52121647 -15.27394919 320.00933763
			vertex -158.70073178 -41.67832242 320.00933763
			vertex -158.70073178 -71.74588485 320.00933763
		endloop
	endfacet
	facet normal 0 0 -1
		outer loop
			vertex -164.52121647 -15.27394919 320.00933763
			vertex -158.70073178 -71.74588485 320.00933763
			vertex -171.36712331 -31.06774966 320.00933763
		endloop
	endfacet
	facet normal 0 0 -1
		outer loop
			vertex -171.36712331 -31.06774966 320.00933763
			vertex -158.70073178 -71.74588485 320.00933763
			vertex -158.70073178 -72.00605348 320.00933763
		endloop
	endfacet
	facet normal 0 0 -1
		outer loop
			vertex -171.36712331 -31.06774966 320.00933763
			vertex -158.70073178 -72.00605348 320.00933763
			vertex -171.4341252 -31.25872449 320.00933763
		endloop
	endfacet
	facet normal 0 0 -1
		outer loop
			vertex -171.4341252 -31.25872449 320.00933763
			vertex -158.70073178 -72.00605348 320.00933763
			vertex -158.70073178 -72.80928075 320.00933763
		endloop
	endfacet
	facet normal 0 0 -1
		outer loop
			vertex -171.4341252 -31.25872449 320.00933763
			vertex -158.70073178 -72.80928075 320.00933763
			vertex -171.61399515 -31.94342547 320.00933763
		endloop
	endfacet
	facet normal 0 0 -1
		outer loop
			vertex -171.61399515 -31.94342547 320.00933763
			vertex -158.70073178 -72.80928075 320.00933763
			vertex -158.70073178 -89.42099436 320.00933763
		endloop
	endfacet
	facet normal 0 0 -1
		outer loop
			vertex -171.61399515 -31.94342547 320.00933763
			vertex -158.70073178 -89.42099436 320.00933763
			vertex -158.70073178 -89.55667203 320.00933763
		endloop
	endfacet
	facet normal 0 0 -1
		outer loop
			vertex -171.61399515 -31.94342547 320.00933763
			vertex -158.70073178 -89.55667203 320.00933763
			vertex -158.70073178 -90.51750816 320.00933763
		endloop
	endfacet
	facet normal 0 0 -1
		outer loop
			vertex -171.61399515 -31.94342547 320.00933763
			vertex -158.70073178 -90.51750816 320.00933763
			vertex -158.70073178 -102.77438819 320.00933763
		endloop
	endfacet
	facet normal 0 0 -1
		outer loop
			vertex -171.61399515 -31.94342547 320.00933763
			vertex -158.70073178 -102.77438819 320.00933763
			vertex -175.53913423 -48.70364741 320.00933763
		endloop
	endfacet
	facet normal 0 0 -1
		outer loop
			vertex -175.53913423 -48.70364741 320.00933763
			vertex -158.70073178 -102.77438819 320.00933763
			vertex -158.70073178 -102.93780642 320.00933763
		endloop
	endfacet
	facet normal 0 0 -1
		outer loop
			vertex -175.53913423 -48.70364741 320.00933763
			vertex -158.70073178 -102.93780642 320.00933763
			vertex -175.58971307 -49.00296507 320.00933763
		endloop
	endfacet
	facet normal 0 0 -1
		outer loop
			vertex -175.58971307 -49.00296507 320.00933763
			vertex -158.70073178 -102.93780642 320.00933763
			vertex -158.70073178 -103.21075804 320.00933763
		endloop
	endfacet
	facet normal 0 0 -1
		outer loop
			vertex -175.58971307 -49.00296507 320.00933763
			vertex -158.70073178 -103.21075804 320.00933763
			vertex -175.64236876 -49.60758107 320.00933763
		endloop
	endfacet
	facet normal 0 0 -1
		outer loop
			vertex -175.64236876 -49.60758107 320.00933763
			vertex -158.70073178 -103.21075804 320.00933763
			vertex -158.70073178 -120.67993218 320.00933763
		endloop
	endfacet
	facet normal 0 0 -1
		outer loop
			vertex -175.64236876 -49.60758107 320.00933763
			vertex -158.70073178 -120.67993218 320.00933763
			vertex -160.06805794 -118.93549234 320.00933763
		endloop
	endfacet
	facet normal -0.0858386319962976 -0.0672820032974876 -0.994034637871981
		outer loop
			vertex -160.06805794 -118.93549234 320.00933763
			vertex -158.70073178 -120.67993218 320.00933763
			vertex -158.70073178 -122.95097781 320.16305511
		endloop
	endfacet
	facet normal -0.0858386434982182 -0.0672820071659986 -0.994034636616904
		outer loop
			vertex -160.06805794 -118.93549234 320.00933763
			vertex -158.70073178 -122.95097781 320.16305511
			vertex -159.1428 -122.4955 320.1704
		endloop
	endfacet
	facet normal -0.101547588168215 -0.0825709858989209 -0.991398063153696
		outer loop
			vertex -159.1428 -122.4955 320.1704
			vertex -158.70073178 -122.95097781 320.16305511
			vertex -158.70073178 -122.9553882 320.16342244
		endloop
	endfacet
	facet normal -0.10154679172992 -0.0825702181134795 -0.991398208678053
		outer loop
			vertex -159.1428 -122.4955 320.1704
			vertex -158.70073178 -122.9553882 320.16342244
			vertex -158.70073178 -123.03916587 320.1704
		endloop
	endfacet
	facet normal -0.297575301707791 -0.241965867642052 -0.92352664212233
		outer loop
			vertex -159.1428 -122.4955 320.1704
			vertex -158.70073178 -123.03916587 320.1704
			vertex -158.70073178 -124.68102604 320.60057072
		endloop
	endfacet
	facet normal -0.297575306442144 -0.24196586826718 -0.92352664043306
		outer loop
			vertex -159.1428 -122.4955 320.1704
			vertex -158.70073178 -124.68102604 320.60057072
			vertex -160.1304 -123.1874 320.6699
		endloop
	endfacet
	facet normal -0.297563690263479 -0.241954436750723 -0.923533378267088
		outer loop
			vertex -160.1304 -123.1874 320.6699
			vertex -158.70073178 -124.68102604 320.60057072
			vertex -158.70073178 -124.94565398 320.6699
		endloop
	endfacet
	facet normal -0.473080867848109 -0.384670639137389 -0.792605192931331
		outer loop
			vertex -160.1304 -123.1874 320.6699
			vertex -158.70073178 -124.94565398 320.6699
			vertex -158.70073178 -125.21573117 320.80097505
		endloop
	endfacet
	facet normal -0.473063279095046 -0.384659276463032 -0.792621205244207
		outer loop
			vertex -160.1304 -123.1874 320.6699
			vertex -158.70073178 -125.21573117 320.80097505
			vertex -158.70073178 -126.5829774 321.4645
		endloop
	endfacet
	facet normal -0.473063275454527 -0.384659275543154 -0.79262120786341
		outer loop
			vertex -160.1304 -123.1874 320.6699
			vertex -158.70073178 -126.5829774 321.4645
			vertex -160.9786 -123.7816 321.4645
		endloop
	endfacet
	facet normal -0.61614284057033 -0.501000756097937 -0.607755084226549
		outer loop
			vertex -160.9786 -123.7816 321.4645
			vertex -158.70073178 -126.5829774 321.4645
			vertex -158.70073178 -127.47725272 322.2016927
		endloop
	endfacet
	facet normal -0.616142839948251 -0.501000755876692 -0.607755085039597
		outer loop
			vertex -160.9786 -123.7816 321.4645
			vertex -158.70073178 -127.47725272 322.2016927
			vertex -161.6293 -124.2375 322.5
		endloop
	endfacet
	facet normal -0.616119747769013 -0.500975834772835 -0.607799037003769
		outer loop
			vertex -161.6293 -124.2375 322.5
			vertex -158.70073178 -127.47725272 322.2016927
			vertex -158.70073178 -127.83916816 322.5
		endloop
	endfacet
	facet normal -0.717088481202949 -0.583074965179194 -0.38184773811996
		outer loop
			vertex -161.6293 -124.2375 322.5
			vertex -158.70073178 -127.83916816 322.5
			vertex -158.70073178 -128.3651999 323.30324147
		endloop
	endfacet
	facet normal -0.717088482660078 -0.583074965565675 -0.381847734793405
		outer loop
			vertex -161.6293 -124.2375 322.5
			vertex -158.70073178 -128.3651999 323.30324147
			vertex -162.0384 -124.5241 323.7059
		endloop
	endfacet
	facet normal -0.717095583273912 -0.58308397579296 -0.381820640644953
		outer loop
			vertex -162.0384 -124.5241 323.7059
			vertex -158.70073178 -128.3651999 323.30324147
			vertex -158.70073178 -128.62887262 323.7059
		endloop
	endfacet
	facet normal -0.769268735060695 -0.625506951869033 -0.130256156943269
		outer loop
			vertex -162.0384 -124.5241 323.7059
			vertex -158.70073178 -128.62887262 323.7059
			vertex -158.70073178 -128.80245794 324.53947921
		endloop
	endfacet
	facet normal -0.769268734664134 -0.625506951944947 -0.130256158920735
		outer loop
			vertex -162.0384 -124.5241 323.7059
			vertex -158.70073178 -128.80245794 324.53947921
			vertex -162.178 -124.6219 325
		endloop
	endfacet
	facet normal -0.769945844023227 -0.637593602419529 -0.0256475227858004
		outer loop
			vertex -162.178 -124.6219 325
			vertex -158.70073178 -128.80245794 324.53947921
			vertex -158.70073178 -128.82098262 325
		endloop
	endfacet
	facet normal -0.770199202450458 -0.637803409009922 0
		outer loop
			vertex -162.178 -124.6219 325
			vertex -158.70073178 -128.82098262 325
			vertex -158.70073178 -128.82098262 342.07528871
		endloop
	endfacet
	facet normal -0.770199202450458 -0.637803409009922 0
		outer loop
			vertex -162.178 -124.6219 325
			vertex -158.70073178 -128.82098262 342.07528871
			vertex -162.178 -124.6219 350
		endloop
	endfacet
	facet normal -0.770199202450459 -0.637803409009922 0
		outer loop
			vertex -162.178 -124.6219 350
			vertex -158.70073178 -128.82098262 342.07528871
			vertex -158.70073178 -128.82098262 350
		endloop
	endfacet
	facet normal 0 0 1
		outer loop
			vertex -162.178 -124.6219 350
			vertex -158.70073178 -128.82098262 350
			vertex -158.70073178 -121.45504649 350
		endloop
	endfacet
	facet normal 0 0 1
		outer loop
			vertex -162.178 -124.6219 350
			vertex -158.70073178 -121.45504649 350
			vertex -158.70073178 -120.23197072 350
		endloop
	endfacet
	facet normal 0 0 1
		outer loop
			vertex -162.178 -124.6219 350
			vertex -158.70073178 -120.23197072 350
			vertex -158.70073178 -103.00370208 350
		endloop
	endfacet
	facet normal 0 0 1
		outer loop
			vertex -162.178 -124.6219 350
			vertex -158.70073178 -103.00370208 350
			vertex -170.8812 -109.7873 350
		endloop
	endfacet
	facet normal 0 0 1
		outer loop
			vertex -170.8812 -109.7873 350
			vertex -158.70073178 -103.00370208 350
			vertex -158.70073178 -99.77037606 350
		endloop
	endfacet
	facet normal 0 0 1
		outer loop
			vertex -170.8812 -109.7873 350
			vertex -158.70073178 -99.77037606 350
			vertex -158.70073178 -88.95040459 350
		endloop
	endfacet
	facet normal 0 0 1
		outer loop
			vertex -170.8812 -109.7873 350
			vertex -158.70073178 -88.95040459 350
			vertex -177.0926 -93.74892 350
		endloop
	endfacet
	facet normal 0 0 1
		outer loop
			vertex -177.0926 -93.74892 350
			vertex -158.70073178 -88.95040459 350
			vertex -158.70073178 -84.87919493 350
		endloop
	endfacet
	facet normal 0 0 1
		outer loop
			vertex -177.0926 -93.74892 350
			vertex -158.70073178 -84.87919493 350
			vertex -158.70073178 -77.16181414 350
		endloop
	endfacet
	facet normal 0 0 1
		outer loop
			vertex -177.0926 -93.74892 350
			vertex -158.70073178 -77.16181414 350
			vertex -180.6514 -76.922 350
		endloop
	endfacet
	facet normal 0 0 1
		outer loop
			vertex -180.6514 -76.922 350
			vertex -158.70073178 -77.16181414 350
			vertex -158.70073178 -72.69942463 350
		endloop
	endfacet
	facet normal 0 0 1
		outer loop
			vertex -180.6514 -76.922 350
			vertex -158.70073178 -72.69942463 350
			vertex -158.70073178 -66.16298068 350
		endloop
	endfacet
	facet normal 0 0 1
		outer loop
			vertex -180.6514 -76.922 350
			vertex -158.70073178 -66.16298068 350
			vertex -181.4656 -59.74213 350
		endloop
	endfacet
	facet normal 0 0 1
		outer loop
			vertex -181.4656 -59.74213 350
			vertex -158.70073178 -66.16298068 350
			vertex -158.70073178 -61.47828083 350
		endloop
	endfacet
	facet normal 0 0 1
		outer loop
			vertex -181.4656 -59.74213 350
			vertex -158.70073178 -61.47828083 350
			vertex -158.70073178 -57.07713962 350
		endloop
	endfacet
	facet normal 0 0 1
		outer loop
			vertex -181.4656 -59.74213 350
			vertex -158.70073178 -57.07713962 350
			vertex -158.70073178 -49.84156375 350
		endloop
	endfacet
	facet normal 0 0 1
		outer loop
			vertex -181.4656 -59.74213 350
			vertex -158.70073178 -49.84156375 350
			vertex -179.514 -42.65407 350
		endloop
	endfacet
	facet normal 0 0 1
		outer loop
			vertex -179.514 -42.65407 350
			vertex -158.70073178 -49.84156375 350
			vertex -158.70073178 -45.77024992 350
		endloop
	endfacet
	facet normal 0 0 1
		outer loop
			vertex -179.514 -42.65407 350
			vertex -158.70073178 -45.77024992 350
			vertex -158.70073178 -36.38296351 350
		endloop
	endfacet
	facet normal 0 0 1
		outer loop
			vertex -179.514 -42.65407 350
			vertex -158.70073178 -36.38296351 350
			vertex -174.8471 -26.10019 350
		endloop
	endfacet
	facet normal 0 0 1
		outer loop
			vertex -174.8471 -26.10019 350
			vertex -158.70073178 -36.38296351 350
			vertex -158.70073178 -32.89607044 350
		endloop
	endfacet
	facet normal 1 0 0
		outer loop
			vertex -158.70073178 -4.00725306 320.1704
			vertex -158.70073178 -2.56455867 320.50739546
			vertex -158.70073178 -1.86889498 320.6699
		endloop
	endfacet
	facet normal 1 0 0
		outer loop
			vertex -158.70073178 -4.00725306 320.1704
			vertex -158.70073178 -1.86889498 320.6699
			vertex -158.70073178 -0.44178262 321.28747247
		endloop
	endfacet
	facet normal 1 0 0
		outer loop
			vertex -158.70073178 -4.00725306 320.1704
			vertex -158.70073178 -0.44178262 321.28747247
			vertex -158.70073178 -0.03268632 321.4645
		endloop
	endfacet
	facet normal 1 0 0
		outer loop
			vertex -158.70073178 -5.26380486 320.0770924
			vertex -158.70073178 -4.00725306 320.1704
			vertex -158.70073178 -0.03268632 321.4645
		endloop
	endfacet
	facet normal 1 0 0
		outer loop
			vertex -158.70073178 -5.26380486 320.0770924
			vertex -158.70073178 -0.03268632 321.4645
			vertex -158.70073178 0.23237773 321.65929423
		endloop
	endfacet
	facet normal 1 0 0
		outer loop
			vertex -158.70073178 -6.29426434 320.00933763
			vertex -158.70073178 -5.26380486 320.0770924
			vertex -158.70073178 0.23237773 321.65929423
		endloop
	endfacet
	facet normal 1 0 0
		outer loop
			vertex -158.70073178 -6.29426434 320.00933763
			vertex -158.70073178 0.23237773 321.65929423
			vertex -158.70073178 1.3764414 322.5
		endloop
	endfacet
	facet normal 1 0 0
		outer loop
			vertex -158.70073178 -6.29426434 320.00933763
			vertex -158.70073178 1.3764414 322.5
			vertex -158.70073178 2.17410488 323.58614309
		endloop
	endfacet
	facet normal 1 0 0
		outer loop
			vertex -158.70073178 -6.29426434 320.00933763
			vertex -158.70073178 2.17410488 323.58614309
			vertex -158.70073178 2.26207174 323.7059
		endloop
	endfacet
	facet normal 1 0 0
		outer loop
			vertex -158.70073178 -6.29426434 320.00933763
			vertex -158.70073178 2.26207174 323.7059
			vertex -158.70073178 2.29028318 323.82677753
		endloop
	endfacet
	facet normal 1 0 0
		outer loop
			vertex -158.70073178 -6.29426434 320.00933763
			vertex -158.70073178 2.29028318 323.82677753
			vertex -158.70073178 2.56424533 325
		endloop
	endfacet
	facet normal 1 0 0
		outer loop
			vertex -158.70073178 -30.18034951 320.00933763
			vertex -158.70073178 -6.29426434 320.00933763
			vertex -158.70073178 2.56424533 325
		endloop
	endfacet
	facet normal 1 0 0
		outer loop
			vertex -158.70073178 -30.43284776 320.00933763
			vertex -158.70073178 -30.18034951 320.00933763
			vertex -158.70073178 2.56424533 325
		endloop
	endfacet
	facet normal 1 0 0
		outer loop
			vertex -158.70073178 -30.66309364 320.00933763
			vertex -158.70073178 -30.43284776 320.00933763
			vertex -158.70073178 2.56424533 325
		endloop
	endfacet
	facet normal 1 0 0
		outer loop
			vertex -158.70073178 -30.83717842 320.00933763
			vertex -158.70073178 -30.66309364 320.00933763
			vertex -158.70073178 2.56424533 325
		endloop
	endfacet
	facet normal 1 0 0
		outer loop
			vertex -158.70073178 -32.09924308 320.00933763
			vertex -158.70073178 -30.83717842 320.00933763
			vertex -158.70073178 2.56424533 325
		endloop
	endfacet
	facet normal 1 0 0
		outer loop
			vertex -158.70073178 -41.17807649 320.00933763
			vertex -158.70073178 -32.09924308 320.00933763
			vertex -158.70073178 2.56424533 325
		endloop
	endfacet
	facet normal 1 0 0
		outer loop
			vertex -158.70073178 -41.67832242 320.00933763
			vertex -158.70073178 -41.17807649 320.00933763
			vertex -158.70073178 2.56424533 325
		endloop
	endfacet
	facet normal 1 0 0
		outer loop
			vertex -158.70073178 -71.74588485 320.00933763
			vertex -158.70073178 -41.67832242 320.00933763
			vertex -158.70073178 2.56424533 325
		endloop
	endfacet
	facet normal 1 0 0
		outer loop
			vertex -158.70073178 -72.00605348 320.00933763
			vertex -158.70073178 -71.74588485 320.00933763
			vertex -158.70073178 2.56424533 325
		endloop
	endfacet
	facet normal 1 0 0
		outer loop
			vertex -158.70073178 -72.80928075 320.00933763
			vertex -158.70073178 -72.00605348 320.00933763
			vertex -158.70073178 2.56424533 325
		endloop
	endfacet
	facet normal 1 0 0
		outer loop
			vertex -158.70073178 -89.42099436 320.00933763
			vertex -158.70073178 -72.80928075 320.00933763
			vertex -158.70073178 2.56424533 325
		endloop
	endfacet
	facet normal 1 0 0
		outer loop
			vertex -158.70073178 -89.55667203 320.00933763
			vertex -158.70073178 -89.42099436 320.00933763
			vertex -158.70073178 2.56424533 325
		endloop
	endfacet
	facet normal 1 0 0
		outer loop
			vertex -158.70073178 -90.51750816 320.00933763
			vertex -158.70073178 -89.55667203 320.00933763
			vertex -158.70073178 2.56424533 325
		endloop
	endfacet
	facet normal 1 0 0
		outer loop
			vertex -158.70073178 -90.51750816 320.00933763
			vertex -158.70073178 2.56424533 325
			vertex -158.70073178 2.56424533 347.97616863
		endloop
	endfacet
	facet normal 1 0 0
		outer loop
			vertex -158.70073178 -102.77438819 320.00933763
			vertex -158.70073178 -90.51750816 320.00933763
			vertex -158.70073178 2.56424533 347.97616863
		endloop
	endfacet
	facet normal 1 0 0
		outer loop
			vertex -158.70073178 -102.93780642 320.00933763
			vertex -158.70073178 -102.77438819 320.00933763
			vertex -158.70073178 2.56424533 347.97616863
		endloop
	endfacet
	facet normal 1 0 0
		outer loop
			vertex -158.70073178 -102.93780642 320.00933763
			vertex -158.70073178 2.56424533 347.97616863
			vertex -158.70073178 2.56424533 350
		endloop
	endfacet
	facet normal 1 0 0
		outer loop
			vertex -158.70073178 -103.21075804 320.00933763
			vertex -158.70073178 -102.93780642 320.00933763
			vertex -158.70073178 2.56424533 350
		endloop
	endfacet
	facet normal 1 0 0
		outer loop
			vertex -158.70073178 -120.67993218 320.00933763
			vertex -158.70073178 -103.21075804 320.00933763
			vertex -158.70073178 2.56424533 350
		endloop
	endfacet
	facet normal 1 0 0
		outer loop
			vertex -158.70073178 -120.67993218 320.00933763
			vertex -158.70073178 2.56424533 350
			vertex -158.70073178 -16.9253425 350
		endloop
	endfacet
	facet normal 1 0 0
		outer loop
			vertex -158.70073178 -122.95097781 320.16305511
			vertex -158.70073178 -120.67993218 320.00933763
			vertex -158.70073178 -16.9253425 350
		endloop
	endfacet
	facet normal 1 0 0
		outer loop
			vertex -158.70073178 -122.9553882 320.16342244
			vertex -158.70073178 -122.95097781 320.16305511
			vertex -158.70073178 -16.9253425 350
		endloop
	endfacet
	facet normal 1 0 0
		outer loop
			vertex -158.70073178 -123.03916587 320.1704
			vertex -158.70073178 -122.9553882 320.16342244
			vertex -158.70073178 -16.9253425 350
		endloop
	endfacet
	facet normal 1 0 0
		outer loop
			vertex -158.70073178 -123.03916587 320.1704
			vertex -158.70073178 -16.9253425 350
			vertex -158.70073178 -19.22361473 350
		endloop
	endfacet
	facet normal 1 0 0
		outer loop
			vertex -158.70073178 -124.68102604 320.60057072
			vertex -158.70073178 -123.03916587 320.1704
			vertex -158.70073178 -19.22361473 350
		endloop
	endfacet
	facet normal 1 0 0
		outer loop
			vertex -158.70073178 -124.94565398 320.6699
			vertex -158.70073178 -124.68102604 320.60057072
			vertex -158.70073178 -19.22361473 350
		endloop
	endfacet
	facet normal 1 0 0
		outer loop
			vertex -158.70073178 -125.21573117 320.80097505
			vertex -158.70073178 -124.94565398 320.6699
			vertex -158.70073178 -19.22361473 350
		endloop
	endfacet
	facet normal 1 0 0
		outer loop
			vertex -158.70073178 -126.5829774 321.4645
			vertex -158.70073178 -125.21573117 320.80097505
			vertex -158.70073178 -19.22361473 350
		endloop
	endfacet
	facet normal 1 0 0
		outer loop
			vertex -158.70073178 -127.47725272 322.2016927
			vertex -158.70073178 -126.5829774 321.4645
			vertex -158.70073178 -19.22361473 350
		endloop
	endfacet
	facet normal 1 0 0
		outer loop
			vertex -158.70073178 -127.83916816 322.5
			vertex -158.70073178 -127.47725272 322.2016927
			vertex -158.70073178 -19.22361473 350
		endloop
	endfacet
	facet normal 1 0 0
		outer loop
			vertex -158.70073178 -127.83916816 322.5
			vertex -158.70073178 -19.22361473 350
			vertex -158.70073178 -32.89607044 350
		endloop
	endfacet
	facet normal 1 0 0
		outer loop
			vertex -158.70073178 -128.3651999 323.30324147
			vertex -158.70073178 -127.83916816 322.5
			vertex -158.70073178 -32.89607044 350
		endloop
	endfacet
	facet normal 1 0 0
		outer loop
			vertex -158.70073178 -128.62887262 323.7059
			vertex -158.70073178 -128.3651999 323.30324147
			vertex -158.70073178 -32.89607044 350
		endloop
	endfacet
	facet normal 1 0 0
		outer loop
			vertex -158.70073178 -128.62887262 323.7059
			vertex -158.70073178 -32.89607044 350
			vertex -158.70073178 -36.38296351 350
		endloop
	endfacet
	facet normal 1 0 0
		outer loop
			vertex -158.70073178 -128.80245794 324.53947921
			vertex -158.70073178 -128.62887262 323.7059
			vertex -158.70073178 -36.38296351 350
		endloop
	endfacet
	facet normal 1 0 0
		outer loop
			vertex -158.70073178 -128.82098262 325
			vertex -158.70073178 -128.80245794 324.53947921
			vertex -158.70073178 -36.38296351 350
		endloop
	endfacet
	facet normal 1 0 0
		outer loop
			vertex -158.70073178 -128.82098262 325
			vertex -158.70073178 -36.38296351 350
			vertex -158.70073178 -45.77024992 350
		endloop
	endfacet
	facet normal 1 0 0
		outer loop
			vertex -158.70073178 -128.82098262 325
			vertex -158.70073178 -45.77024992 350
			vertex -158.70073178 -49.84156375 350
		endloop
	endfacet
	facet normal 1 0 0
		outer loop
			vertex -158.70073178 -128.82098262 325
			vertex -158.70073178 -49.84156375 350
			vertex -158.70073178 -57.07713962 350
		endloop
	endfacet
	facet normal 1 0 0
		outer loop
			vertex -158.70073178 -128.82098262 325
			vertex -158.70073178 -57.07713962 350
			vertex -158.70073178 -61.47828083 350
		endloop
	endfacet
	facet normal 1 0 0
		outer loop
			vertex -158.70073178 -128.82098262 325
			vertex -158.70073178 -61.47828083 350
			vertex -158.70073178 -66.16298068 350
		endloop
	endfacet
	facet normal 1 0 0
		outer loop
			vertex -158.70073178 -128.82098262 325
			vertex -158.70073178 -66.16298068 350
			vertex -158.70073178 -72.69942463 350
		endloop
	endfacet
	facet normal 1 0 0
		outer loop
			vertex -158.70073178 -128.82098262 325
			vertex -158.70073178 -72.69942463 350
			vertex -158.70073178 -77.16181414 350
		endloop
	endfacet
	facet normal 1 0 0
		outer loop
			vertex -158.70073178 -128.82098262 325
			vertex -158.70073178 -77.16181414 350
			vertex -158.70073178 -84.87919493 350
		endloop
	endfacet
	facet normal 1 0 0
		outer loop
			vertex -158.70073178 -128.82098262 325
			vertex -158.70073178 -84.87919493 350
			vertex -158.70073178 -88.95040459 350
		endloop
	endfacet
	facet normal 1 0 0
		outer loop
			vertex -158.70073178 -128.82098262 325
			vertex -158.70073178 -88.95040459 350
			vertex -158.70073178 -99.77037606 350
		endloop
	endfacet
	facet normal 1 0 0
		outer loop
			vertex -158.70073178 -128.82098262 342.07528871
			vertex -158.70073178 -128.82098262 325
			vertex -158.70073178 -99.77037606 350
		endloop
	endfacet
	facet normal 1 0 0
		outer loop
			vertex -158.70073178 -128.82098262 342.07528871
			vertex -158.70073178 -99.77037606 350
			vertex -158.70073178 -103.00370208 350
		endloop
	endfacet
	facet normal 1 0 0
		outer loop
			vertex -158.70073178 -128.82098262 342.07528871
			vertex -158.70073178 -103.00370208 350
			vertex -158.70073178 -120.23197072 350
		endloop
	endfacet
	facet normal 1 0 0
		outer loop
			vertex -158.70073178 -128.82098262 342.07528871
			vertex -158.70073178 -120.23197072 350
			vertex -158.70073178 -121.45504649 350
		endloop
	endfacet
	facet normal 1 0 0
		outer loop
			vertex -158.70073178 -128.82098262 350
			vertex -158.70073178 -128.82098262 342.07528871
			vertex -158.70073178 -121.45504649 350
		endloop
	endfacet
endsolid C:\Users\Matt\Documents\GitHub\TVGL\TestFiles\cvxhullProb120
#  created by TVGL on 2016/6/29 at 14:28:40
#  Originally loaded from : C:\Users\Matt\Documents\GitHub\TVGL\TestFiles\cvxhullProb120.ply
