solid C:\Users\Matt Campbell\Documents\GitHub\TVGL\TestFiles\covxhullProb5
	facet normal 0 -1 0
		outer loop
			vertex 286.9467 156.8478 -123.7329
			vertex 299.1191 156.8478 -100.7734
			vertex 282.0854 156.8478 -107.1541
		endloop
	endfacet
	facet normal 0 -1 0
		outer loop
			vertex 299.1191 156.8478 -100.7734
			vertex 283.1963 156.8478 -103.5623
			vertex 282.0854 156.8478 -107.1541
		endloop
	endfacet
	facet normal 0 -1 0
		outer loop
			vertex 283.3792 156.8478 -99.80711
			vertex 283.1963 156.8478 -103.5623
			vertex 299.1191 156.8478 -100.7734
		endloop
	endfacet
	facet normal 0 -1 0
		outer loop
			vertex 299.1191 156.8478 -100.7734
			vertex 282.6226 156.8478 -96.12439
			vertex 283.3792 156.8478 -99.80711
		endloop
	endfacet
	facet normal 0 -1 0
		outer loop
			vertex 299.1191 156.8478 -100.7734
			vertex 280.9739 156.8478 -92.74551
			vertex 282.6226 156.8478 -96.12439
		endloop
	endfacet
	facet normal 0 -1 0
		outer loop
			vertex 280.9739 156.8478 -92.74551
			vertex 299.1191 156.8478 -100.7734
			vertex 308.7377 156.8478 -76.63237
		endloop
	endfacet
	facet normal 0 -1 0
		outer loop
			vertex 308.7377 156.8478 -76.63237
			vertex 280.52855551 156.8478 -86.02900312
			vertex 280.52855551 156.8478 -89.0088977
		endloop
	endfacet
	facet normal 0 -1 0
		outer loop
			vertex 308.7377 156.8478 -76.63237
			vertex 280.52855551 156.8478 -89.0088977
			vertex 280.52855551 156.8478 -92.2223554
		endloop
	endfacet
	facet normal 0 -1 0
		outer loop
			vertex 308.7377 156.8478 -76.63237
			vertex 280.52855551 156.8478 -92.2223554
			vertex 280.9739 156.8478 -92.74551
		endloop
	endfacet
	facet normal -0.761398033263223 0.0130475846835006 -0.648153373420846
		outer loop
			vertex 280.9739 156.8478 -92.74551
			vertex 280.52855551 156.8478 -92.2223554
			vertex 280.94679735 157.19874659 -92.70660731
		endloop
	endfacet
	facet normal -0.82051033311844 1.76505482792168E-08 -0.571631693703092
		outer loop
			vertex 280.9739 156.8478 -92.74551
			vertex 280.94679735 157.19874659 -92.70660731
			vertex 280.96115437 157.21079356 -92.72721513
		endloop
	endfacet
	facet normal -0.820510796805116 -3.21753154258147E-08 -0.571631028134611
		outer loop
			vertex 280.9739 156.8478 -92.74551
			vertex 280.96115437 157.21079356 -92.72721513
			vertex 280.965568 157.21449704 -92.73355039
		endloop
	endfacet
	facet normal -0.820520995851158 -7.41385374859562E-07 -0.571616388294523
		outer loop
			vertex 280.9739 156.8478 -92.74551
			vertex 280.965568 157.21449704 -92.73355039
			vertex 280.97390743 157.22149465 -92.74552115
		endloop
	endfacet
	facet normal -0.898719614408416 4.784513820529E-06 -0.438523721883659
		outer loop
			vertex 280.9739 156.8478 -92.74551
			vertex 280.97390743 157.22149465 -92.74552115
			vertex 282.57570357 158.56556126 -96.02826073
		endloop
	endfacet
	facet normal -0.898719615005962 4.78741142341688E-06 -0.438523720659003
		outer loop
			vertex 280.9739 156.8478 -92.74551
			vertex 282.57570357 158.56556126 -96.02826073
			vertex 282.6226 156.8478 -96.12439
		endloop
	endfacet
	facet normal -0.898791182515553 -5.3761942661479E-06 -0.43837701833398
		outer loop
			vertex 282.6226 156.8478 -96.12439
			vertex 282.57570357 158.56556126 -96.02826073
			vertex 282.62262329 158.60493158 -96.1244593
		endloop
	endfacet
	facet normal -0.971065146284921 3.45235701895832E-06 -0.238814743386429
		outer loop
			vertex 282.6226 156.8478 -96.12439
			vertex 282.62262329 158.60493158 -96.1244593
			vertex 282.66034714 158.63658565 -96.27785103
		endloop
	endfacet
	facet normal -0.971055783257117 -1.11529918434944E-08 -0.238852812005443
		outer loop
			vertex 282.6226 156.8478 -96.12439
			vertex 282.66034714 158.63658565 -96.27785103
			vertex 282.67399459 158.64803721 -96.33333472
		endloop
	endfacet
	facet normal -0.971055810447744 2.45350902957281E-09 -0.238852701461956
		outer loop
			vertex 282.6226 156.8478 -96.12439
			vertex 282.67399459 158.64803721 -96.33333472
			vertex 282.70309889 158.67245862 -96.45165827
		endloop
	endfacet
	facet normal -0.971055810917387 2.81668340503951E-09 -0.238852699552625
		outer loop
			vertex 282.6226 156.8478 -96.12439
			vertex 282.70309889 158.67245862 -96.45165827
			vertex 282.80820897 158.76065645 -96.87898337
		endloop
	endfacet
	facet normal -0.979421297745852 0.0156579899195036 -0.201218162384791
		outer loop
			vertex 282.6226 156.8478 -96.12439
			vertex 282.80820897 158.76065645 -96.87898337
			vertex 283.33036877 159.19880057 -99.38648054
		endloop
	endfacet
	facet normal -0.979421297607568 0.015657988825853 -0.201218163142986
		outer loop
			vertex 282.6226 156.8478 -96.12439
			vertex 283.33036877 159.19880057 -99.38648054
			vertex 283.3792 156.8478 -99.80711
		endloop
	endfacet
	facet normal -0.993328816695355 -4.86196879132607E-09 -0.115316355833008
		outer loop
			vertex 283.3792 156.8478 -99.80711
			vertex 283.33036877 159.19880057 -99.38648054
			vertex 283.35678878 159.2209696 -99.61406107
		endloop
	endfacet
	facet normal -0.993328802264194 5.38642333991547E-09 -0.11531648014218
		outer loop
			vertex 283.3792 156.8478 -99.80711
			vertex 283.35678878 159.2209696 -99.61406107
			vertex 283.36465709 159.22757189 -99.68183819
		endloop
	endfacet
	facet normal -0.993328805666733 3.82278326487688E-09 -0.115316450832922
		outer loop
			vertex 283.3792 156.8478 -99.80711
			vertex 283.36465709 159.22757189 -99.68183819
			vertex 283.36843615 159.23074289 -99.71439078
		endloop
	endfacet
	facet normal -0.993335201608548 -2.1692800546368E-06 -0.115261343218788
		outer loop
			vertex 283.3792 156.8478 -99.80711
			vertex 283.36843615 159.23074289 -99.71439078
			vertex 283.37920793 159.23978149 -99.80722336
		endloop
	endfacet
	facet normal -0.998815972687565 5.61683977852956E-06 0.0486482545693465
		outer loop
			vertex 283.3792 156.8478 -99.80711
			vertex 283.37920793 159.23978149 -99.80722336
			vertex 283.20310934 159.09201722 -103.42275399
		endloop
	endfacet
	facet normal -0.998815972657432 5.61783869564223E-06 0.0486482551879032
		outer loop
			vertex 283.3792 156.8478 -99.80711
			vertex 283.20310934 159.09201722 -103.42275399
			vertex 283.1963 156.8478 -103.5623
		endloop
	endfacet
	facet normal -0.99880712155146 -5.68767575063165E-06 0.0488296416711953
		outer loop
			vertex 283.1963 156.8478 -103.5623
			vertex 283.20310934 159.09201722 -103.42275399
			vertex 283.19628145 159.08628795 -103.5624187
		endloop
	endfacet
	facet normal -0.968464020149635 5.18631648156554E-06 0.249153450003627
		outer loop
			vertex 283.1963 156.8478 -103.5623
			vertex 283.19628145 159.08628795 -103.5624187
			vertex 283.15318945 159.05012946 -103.72991734
		endloop
	endfacet
	facet normal -0.968480443817648 5.42674056765294E-09 0.249089602237373
		outer loop
			vertex 283.1963 156.8478 -103.5623
			vertex 283.15318945 159.05012946 -103.72991734
			vertex 283.13830696 159.03764157 -103.78778166
		endloop
	endfacet
	facet normal -0.968480476496318 -8.52140766840325E-09 0.249089475180035
		outer loop
			vertex 283.1963 156.8478 -103.5623
			vertex 283.13830696 159.03764157 -103.78778166
			vertex 283.1077317 159.01198588 -103.9066608
		endloop
	endfacet
	facet normal -0.968480458932334 3.06358793074422E-09 0.249089543470246
		outer loop
			vertex 283.1963 156.8478 -103.5623
			vertex 283.1077317 159.01198588 -103.9066608
			vertex 283.00896095 158.92910738 -104.29068953
		endloop
	endfacet
	facet normal -0.955204690018643 0.0174137154633626 0.295433178028719
		outer loop
			vertex 283.1963 156.8478 -103.5623
			vertex 283.00896095 158.92910738 -104.29068953
			vertex 282.20187876 158.25188498 -106.86025785
		endloop
	endfacet
	facet normal -0.955204689902528 0.0174137163101735 0.295433178354232
		outer loop
			vertex 283.1963 156.8478 -103.5623
			vertex 282.20187876 158.25188498 -106.86025785
			vertex 282.0854 156.8478 -107.1541
		endloop
	endfacet
	facet normal -0.929626510447927 -4.63601397443401E-09 0.368503122201714
		outer loop
			vertex 282.0854 156.8478 -107.1541
			vertex 282.20187876 158.25188498 -106.86025785
			vertex 282.13628279 158.19684343 -107.02573746
		endloop
	endfacet
	facet normal -0.929626551799194 6.84953018730042E-09 0.368503017884441
		outer loop
			vertex 282.0854 156.8478 -107.1541
			vertex 282.13628279 158.19684343 -107.02573746
			vertex 282.11795143 158.18146159 -107.07198218
		endloop
	endfacet
	facet normal -0.929626429997278 -1.50430100666912E-08 0.368503325155305
		outer loop
			vertex 282.0854 156.8478 -107.1541
			vertex 282.11795143 158.18146159 -107.07198218
			vertex 282.10933018 158.1742275 -107.09373108
		endloop
	endfacet
	facet normal -0.929599729151236 -3.56207579474734E-06 0.368570676464175
		outer loop
			vertex 282.0854 156.8478 -107.1541
			vertex 282.10933018 158.1742275 -107.09373108
			vertex 282.08536753 158.15412045 -107.15416927
		endloop
	endfacet
	facet normal -0.851851870191734 6.60083237209084E-06 0.523782771010344
		outer loop
			vertex 282.0854 156.8478 -107.1541
			vertex 282.08536753 158.15412045 -107.15416927
			vertex 280.52855551 156.8478 -109.68606738
		endloop
	endfacet
	facet normal 0 -1 0
		outer loop
			vertex 282.0854 156.8478 -107.1541
			vertex 280.52855551 156.8478 -109.68606738
			vertex 280.52855551 156.8478 -111.16421771
		endloop
	endfacet
	facet normal 0 -1 0
		outer loop
			vertex 282.0854 156.8478 -107.1541
			vertex 280.52855551 156.8478 -111.16421771
			vertex 286.9467 156.8478 -123.7329
		endloop
	endfacet
	facet normal 0 -1 0
		outer loop
			vertex 286.9467 156.8478 -123.7329
			vertex 280.52855551 156.8478 -111.16421771
			vertex 280.52855551 156.8478 -116.48702476
		endloop
	endfacet
	facet normal 0 -1 0
		outer loop
			vertex 286.9467 156.8478 -123.7329
			vertex 280.52855551 156.8478 -116.48702476
			vertex 280.52855551 156.8478 -119.26836757
		endloop
	endfacet
	facet normal 0 -1 0
		outer loop
			vertex 286.9467 156.8478 -123.7329
			vertex 280.52855551 156.8478 -119.26836757
			vertex 280.52855551 156.8478 -120.63962818
		endloop
	endfacet
	facet normal 0 -1 0
		outer loop
			vertex 286.9467 156.8478 -123.7329
			vertex 280.52855551 156.8478 -120.63962818
			vertex 280.52855551 156.8478 -133.19895236
		endloop
	endfacet
	facet normal 0.827688927572359 0 -0.561187169466764
		outer loop
			vertex 286.9467 156.8478 -123.7329
			vertex 280.52855551 156.8478 -133.19895236
			vertex 286.9467 162.2332629 -123.7329
		endloop
	endfacet
	facet normal 0.883511351526544 0 -0.46840974768224
		outer loop
			vertex 286.9467 156.8478 -123.7329
			vertex 286.9467 162.2332629 -123.7329
			vertex 288.2543243 163.33049001 -121.26646774
		endloop
	endfacet
	facet normal 0.883511352172883 -5.94204998156134E-10 -0.468409746463119
		outer loop
			vertex 286.9467 156.8478 -123.7329
			vertex 288.2543243 163.33049001 -121.26646774
			vertex 299.1191 172.44711967 -100.7734
		endloop
	endfacet
	facet normal 0.883511352005806 0 -0.46840974677826
		outer loop
			vertex 286.9467 156.8478 -123.7329
			vertex 299.1191 172.44711967 -100.7734
			vertex 299.1191 156.8478 -100.7734
		endloop
	endfacet
	facet normal 0.928977586596967 0 -0.370135979878308
		outer loop
			vertex 299.1191 156.8478 -100.7734
			vertex 299.1191 172.44711967 -100.7734
			vertex 301.98937284 174.85556465 -93.56950932
		endloop
	endfacet
	facet normal 0.928977586125438 5.48591359989294E-10 -0.370135981061764
		outer loop
			vertex 299.1191 156.8478 -100.7734
			vertex 301.98937284 174.85556465 -93.56950932
			vertex 308.7377 180.51808371 -76.63237
		endloop
	endfacet
	facet normal 0.928977586310392 0 -0.370135980597561
		outer loop
			vertex 299.1191 156.8478 -100.7734
			vertex 308.7377 180.51808371 -76.63237
			vertex 308.7377 156.8478 -76.63237
		endloop
	endfacet
	facet normal 0.963549713264928 0 -0.267529344310255
		outer loop
			vertex 308.7377 156.8478 -76.63237
			vertex 308.7377 180.51808371 -76.63237
			vertex 311.7564721 183.05113438 -65.75977956
		endloop
	endfacet
	facet normal 0.963549713247251 2.8454153925516E-11 -0.267529344373922
		outer loop
			vertex 308.7377 156.8478 -76.63237
			vertex 311.7564721 183.05113438 -65.75977956
			vertex 315.6899 186.35167241 -51.59291
		endloop
	endfacet
	facet normal 0.963549713255893 0 -0.267529344342795
		outer loop
			vertex 308.7377 156.8478 -76.63237
			vertex 315.6899 186.35167241 -51.59291
			vertex 315.6899 156.8478 -51.59291
		endloop
	endfacet
	facet normal 0.986826386043254 0 -0.16178282915319
		outer loop
			vertex 315.6899 156.8478 -51.59291
			vertex 315.6899 186.35167241 -51.59291
			vertex 317.87300428 188.18351448 -38.27663337
		endloop
	endfacet
	facet normal 0.9868263860789 -9.48808731432913E-11 -0.161782828935762
		outer loop
			vertex 315.6899 156.8478 -51.59291
			vertex 317.87300428 188.18351448 -38.27663337
			vertex 319.8941 189.87941523 -25.94856
		endloop
	endfacet
	facet normal 0.986826386059388 0 -0.161782829054776
		outer loop
			vertex 315.6899 156.8478 -51.59291
			vertex 319.8941 189.87941523 -25.94856
			vertex 319.8941 156.8478 -25.94856
		endloop
	endfacet
	facet normal 0.9985333931528 0 -0.0541392903421893
		outer loop
			vertex 319.8941 156.8478 -25.94856
			vertex 319.8941 189.87941523 -25.94856
			vertex 320.67956116 190.53849543 -11.46168379
		endloop
	endfacet
	facet normal 0.998533393119005 2.68806908939118E-10 -0.0541392909654947
		outer loop
			vertex 319.8941 156.8478 -25.94856
			vertex 320.67956116 190.53849543 -11.46168379
			vertex 321.301 191.05994455 0
		endloop
	endfacet
	facet normal 0.998533393138164 0 -0.0541392906121222
		outer loop
			vertex 319.8941 156.8478 -25.94856
			vertex 321.301 191.05994455 0
			vertex 321.301 156.8478 0
		endloop
	endfacet
	facet normal 1 0 0
		outer loop
			vertex 321.301 156.8478 0
			vertex 321.301 191.05994455 0
			vertex 321.301 191.05994455 198.42658322
		endloop
	endfacet
	facet normal 1 0 0
		outer loop
			vertex 321.301 156.8478 0
			vertex 321.301 191.05994455 198.42658322
			vertex 321.301 191.05994455 350
		endloop
	endfacet
	facet normal 1 0 0
		outer loop
			vertex 321.301 156.8478 0
			vertex 321.301 191.05994455 350
			vertex 321.301 156.8478 350
		endloop
	endfacet
	facet normal 0 0 1
		outer loop
			vertex 321.301 156.8478 350
			vertex 321.301 191.05994455 350
			vertex 280.52855551 156.8478 350
		endloop
	endfacet
	facet normal 0 -1 0
		outer loop
			vertex 321.301 156.8478 350
			vertex 280.52855551 156.8478 350
			vertex 280.52855551 156.8478 0.2629562
		endloop
	endfacet
	facet normal 0 -1 0
		outer loop
			vertex 321.301 156.8478 350
			vertex 280.52855551 156.8478 0.2629562
			vertex 280.52855551 156.8478 0
		endloop
	endfacet
	facet normal 0 -1 0
		outer loop
			vertex 321.301 156.8478 350
			vertex 280.52855551 156.8478 0
			vertex 321.301 156.8478 0
		endloop
	endfacet
	facet normal 0 -1 0
		outer loop
			vertex 321.301 156.8478 0
			vertex 280.52855551 156.8478 0
			vertex 280.52855551 156.8478 -0.02019145
		endloop
	endfacet
	facet normal 0 -1 0
		outer loop
			vertex 321.301 156.8478 0
			vertex 280.52855551 156.8478 -0.02019145
			vertex 319.8941 156.8478 -25.94856
		endloop
	endfacet
	facet normal 0 -1 0
		outer loop
			vertex 319.8941 156.8478 -25.94856
			vertex 280.52855551 156.8478 -0.02019145
			vertex 280.52855551 156.8478 -30.30774705
		endloop
	endfacet
	facet normal 0 -1 0
		outer loop
			vertex 319.8941 156.8478 -25.94856
			vertex 280.52855551 156.8478 -30.30774705
			vertex 280.52855551 156.8478 -31.91075563
		endloop
	endfacet
	facet normal 0 -1 0
		outer loop
			vertex 319.8941 156.8478 -25.94856
			vertex 280.52855551 156.8478 -31.91075563
			vertex 315.6899 156.8478 -51.59291
		endloop
	endfacet
	facet normal 0 -1 0
		outer loop
			vertex 315.6899 156.8478 -51.59291
			vertex 280.52855551 156.8478 -31.91075563
			vertex 280.52855551 156.8478 -58.5560416
		endloop
	endfacet
	facet normal 0 -1 0
		outer loop
			vertex 315.6899 156.8478 -51.59291
			vertex 280.52855551 156.8478 -58.5560416
			vertex 280.52855551 156.8478 -64.47737787
		endloop
	endfacet
	facet normal 0 -1 0
		outer loop
			vertex 315.6899 156.8478 -51.59291
			vertex 280.52855551 156.8478 -64.47737787
			vertex 308.7377 156.8478 -76.63237
		endloop
	endfacet
	facet normal 0 -1 0
		outer loop
			vertex 308.7377 156.8478 -76.63237
			vertex 280.52855551 156.8478 -64.47737787
			vertex 280.52855551 156.8478 -86.02900312
		endloop
	endfacet
	facet normal -0.642787630186397 0.766044425917555 5.42889662539618E-09
		outer loop
			vertex 288.2543243 163.33049001 -121.26646774
			vertex 286.9467 162.2332629 -123.7329
			vertex 280.52855551 156.8478 -133.19895236
		endloop
	endfacet
	facet normal -0.642787625265904 0.766044430046339 0
		outer loop
			vertex 288.2543243 163.33049001 -121.26646774
			vertex 280.52855551 156.8478 -133.19895236
			vertex 280.52855551 156.8478 -120.63962818
		endloop
	endfacet
	facet normal -0.642787625265904 0.766044430046339 0
		outer loop
			vertex 288.2543243 163.33049001 -121.26646774
			vertex 280.52855551 156.8478 -120.63962818
			vertex 280.52855551 156.8478 -119.26836757
		endloop
	endfacet
	facet normal -0.642787625265904 0.766044430046339 0
		outer loop
			vertex 288.2543243 163.33049001 -121.26646774
			vertex 280.52855551 156.8478 -119.26836757
			vertex 280.52855551 156.8478 -116.48702476
		endloop
	endfacet
	facet normal -0.642787625265904 0.766044430046339 0
		outer loop
			vertex 288.2543243 163.33049001 -121.26646774
			vertex 280.52855551 156.8478 -116.48702476
			vertex 280.52855551 156.8478 -111.16421771
		endloop
	endfacet
	facet normal -0.642787625265904 0.766044430046339 0
		outer loop
			vertex 288.2543243 163.33049001 -121.26646774
			vertex 280.52855551 156.8478 -111.16421771
			vertex 280.52855551 156.8478 -109.68606738
		endloop
	endfacet
	facet normal -0.642787625854709 0.766044429552273 -6.69394136125499E-10
		outer loop
			vertex 288.2543243 163.33049001 -121.26646774
			vertex 280.52855551 156.8478 -109.68606738
			vertex 282.08536753 158.15412045 -107.15416927
		endloop
	endfacet
	facet normal -0.642787610760763 0.766044442217598 1.05742962927524E-08
		outer loop
			vertex 288.2543243 163.33049001 -121.26646774
			vertex 282.08536753 158.15412045 -107.15416927
			vertex 282.10933018 158.1742275 -107.09373108
		endloop
	endfacet
	facet normal -0.64278762519637 0.766044430104685 -9.15402481297304E-11
		outer loop
			vertex 299.1191 172.44711967 -100.7734
			vertex 288.2543243 163.33049001 -121.26646774
			vertex 282.10933018 158.1742275 -107.09373108
		endloop
	endfacet
	facet normal -0.642787607141281 0.766044445254699 -8.28953441030177E-08
		outer loop
			vertex 299.1191 172.44711967 -100.7734
			vertex 282.10933018 158.1742275 -107.09373108
			vertex 282.11795143 158.18146159 -107.07198218
		endloop
	endfacet
	facet normal -0.642787616915273 0.76604443705335 -3.79381153582251E-08
		outer loop
			vertex 299.1191 172.44711967 -100.7734
			vertex 282.11795143 158.18146159 -107.07198218
			vertex 282.13628279 158.19684343 -107.02573746
		endloop
	endfacet
	facet normal -0.642787632704999 0.766044423804195 3.5147847725054E-08
		outer loop
			vertex 299.1191 172.44711967 -100.7734
			vertex 282.13628279 158.19684343 -107.02573746
			vertex 282.20187876 158.25188498 -106.86025785
		endloop
	endfacet
	facet normal -0.642787624997287 0.766044430271735 -1.35724803890151E-09
		outer loop
			vertex 299.1191 172.44711967 -100.7734
			vertex 282.20187876 158.25188498 -106.86025785
			vertex 283.00896095 158.92910738 -104.29068953
		endloop
	endfacet
	facet normal -0.642787626064281 0.766044429376421 6.97083846593926E-09
		outer loop
			vertex 299.1191 172.44711967 -100.7734
			vertex 283.00896095 158.92910738 -104.29068953
			vertex 283.1077317 159.01198588 -103.9066608
		endloop
	endfacet
	facet normal -0.642787625613384 0.766044429754768 3.04437529562598E-09
		outer loop
			vertex 299.1191 172.44711967 -100.7734
			vertex 283.1077317 159.01198588 -103.9066608
			vertex 283.13830696 159.03764157 -103.78778166
		endloop
	endfacet
	facet normal -0.642787628951276 0.766044426953943 3.3199734665656E-08
		outer loop
			vertex 299.1191 172.44711967 -100.7734
			vertex 283.13830696 159.03764157 -103.78778166
			vertex 283.15318945 159.05012946 -103.72991734
		endloop
	endfacet
	facet normal -0.642787621590286 0.766044433130548 -3.45396965822356E-08
		outer loop
			vertex 299.1191 172.44711967 -100.7734
			vertex 283.15318945 159.05012946 -103.72991734
			vertex 283.19628145 159.08628795 -103.5624187
		endloop
	endfacet
	facet normal -0.642787630949506 0.766044425277228 5.65145710089631E-08
		outer loop
			vertex 299.1191 172.44711967 -100.7734
			vertex 283.19628145 159.08628795 -103.5624187
			vertex 283.20310934 159.09201722 -103.42275399
		endloop
	endfacet
	facet normal -0.642787625450618 0.766044429891345 2.20745975151277E-10
		outer loop
			vertex 301.98937284 174.85556465 -93.56950932
			vertex 299.1191 172.44711967 -100.7734
			vertex 283.20310934 159.09201722 -103.42275399
		endloop
	endfacet
	facet normal -0.64278762525342 0.766044430056814 -4.19953756925447E-10
		outer loop
			vertex 301.98937284 174.85556465 -93.56950932
			vertex 283.20310934 159.09201722 -103.42275399
			vertex 283.37920793 159.23978149 -99.80722336
		endloop
	endfacet
	facet normal -0.64278763002276 0.766044426054862 2.38279939321934E-08
		outer loop
			vertex 301.98937284 174.85556465 -93.56950932
			vertex 283.37920793 159.23978149 -99.80722336
			vertex 283.36843615 159.23074289 -99.71439078
		endloop
	endfacet
	facet normal -0.642787590365309 0.766044459331394 -1.80960113551202E-07
		outer loop
			vertex 301.98937284 174.85556465 -93.56950932
			vertex 283.36843615 159.23074289 -99.71439078
			vertex 283.36465709 159.22757189 -99.68183819
		endloop
	endfacet
	facet normal -0.642787612025228 0.766044441156582 -6.8491425537492E-08
		outer loop
			vertex 301.98937284 174.85556465 -93.56950932
			vertex 283.36465709 159.22757189 -99.68183819
			vertex 283.35678878 159.2209696 -99.61406107
		endloop
	endfacet
	facet normal -0.642787630281851 0.766044425837458 2.74092098921684E-08
		outer loop
			vertex 301.98937284 174.85556465 -93.56950932
			vertex 283.35678878 159.2209696 -99.61406107
			vertex 283.33036877 159.19880057 -99.38648054
		endloop
	endfacet
	facet normal -0.642787625598485 0.766044429767271 1.80909806497748E-09
		outer loop
			vertex 301.98937284 174.85556465 -93.56950932
			vertex 283.33036877 159.19880057 -99.38648054
			vertex 282.80820897 158.76065645 -96.87898337
		endloop
	endfacet
	facet normal -0.642787624886224 0.766044430364928 -5.22561973635312E-09
		outer loop
			vertex 301.98937284 174.85556465 -93.56950932
			vertex 282.80820897 158.76065645 -96.87898337
			vertex 282.70309889 158.67245862 -96.45165827
		endloop
	endfacet
	facet normal -0.642787626215522 0.766044429249515 9.93253448620925E-09
		outer loop
			vertex 301.98937284 174.85556465 -93.56950932
			vertex 282.70309889 158.67245862 -96.45165827
			vertex 282.67399459 158.64803721 -96.33333472
		endloop
	endfacet
	facet normal -0.642787613355964 0.766044440039952 -1.43215191583086E-07
		outer loop
			vertex 301.98937284 174.85556465 -93.56950932
			vertex 282.67399459 158.64803721 -96.33333472
			vertex 282.66034714 158.63658565 -96.27785103
		endloop
	endfacet
	facet normal -0.642787625164428 0.766044430131487 3.97165737048451E-10
		outer loop
			vertex 301.98937284 174.85556465 -93.56950932
			vertex 282.66034714 158.63658565 -96.27785103
			vertex 282.62262329 158.60493158 -96.1244593
		endloop
	endfacet
	facet normal -0.642787624346394 0.766044430817899 -1.01694978851132E-08
		outer loop
			vertex 301.98937284 174.85556465 -93.56950932
			vertex 282.62262329 158.60493158 -96.1244593
			vertex 282.57570357 158.56556126 -96.02826073
		endloop
	endfacet
	facet normal -0.642787625180203 0.76604443011825 1.04943336902954E-09
		outer loop
			vertex 301.98937284 174.85556465 -93.56950932
			vertex 282.57570357 158.56556126 -96.02826073
			vertex 280.97390743 157.22149465 -92.74552115
		endloop
	endfacet
	facet normal -0.642787629632123 0.766044426382622 -1.92440551569011E-07
		outer loop
			vertex 301.98937284 174.85556465 -93.56950932
			vertex 280.97390743 157.22149465 -92.74552115
			vertex 280.965568 157.21449704 -92.73355039
		endloop
	endfacet
	facet normal -0.642787611958555 0.766044441212323 5.64985834163975E-07
		outer loop
			vertex 301.98937284 174.85556465 -93.56950932
			vertex 280.965568 157.21449704 -92.73355039
			vertex 280.96115437 157.21079356 -92.72721513
		endloop
	endfacet
	facet normal -0.642787625853274 0.766044429553476 -2.61364346425665E-08
		outer loop
			vertex 301.98937284 174.85556465 -93.56950932
			vertex 280.96115437 157.21079356 -92.72721513
			vertex 280.94679735 157.19874659 -92.70660731
		endloop
	endfacet
	facet normal -0.642787625151041 0.76604443014272 3.04527385306276E-09
		outer loop
			vertex 301.98937284 174.85556465 -93.56950932
			vertex 280.94679735 157.19874659 -92.70660731
			vertex 280.52855551 156.8478 -92.2223554
		endloop
	endfacet
	facet normal -0.642787625263219 0.766044430048592 0
		outer loop
			vertex 301.98937284 174.85556465 -93.56950932
			vertex 280.52855551 156.8478 -92.2223554
			vertex 280.52855551 156.8478 -89.0088977
		endloop
	endfacet
	facet normal -0.642787625237976 0.766044430069773 2.02419478698727E-10
		outer loop
			vertex 308.7377 180.51808371 -76.63237
			vertex 301.98937284 174.85556465 -93.56950932
			vertex 280.52855551 156.8478 -89.0088977
		endloop
	endfacet
	facet normal -0.64278762518586 0.766044430113504 0
		outer loop
			vertex 308.7377 180.51808371 -76.63237
			vertex 280.52855551 156.8478 -89.0088977
			vertex 280.52855551 156.8478 -86.02900312
		endloop
	endfacet
	facet normal -0.642787625031088 0.766044430243373 -7.91774840608674E-10
		outer loop
			vertex 311.7564721 183.05113438 -65.75977956
			vertex 308.7377 180.51808371 -76.63237
			vertex 280.52855551 156.8478 -86.02900312
		endloop
	endfacet
	facet normal -0.642787625509954 0.766044429841557 4.65445520959176E-10
		outer loop
			vertex 315.6899 186.35167241 -51.59291
			vertex 311.7564721 183.05113438 -65.75977956
			vertex 280.52855551 156.8478 -86.02900312
		endloop
	endfacet
	facet normal -0.642787625242452 0.766044430066017 0
		outer loop
			vertex 315.6899 186.35167241 -51.59291
			vertex 280.52855551 156.8478 -86.02900312
			vertex 280.52855551 156.8478 -64.47737787
		endloop
	endfacet
	facet normal -0.642787625242452 0.766044430066017 0
		outer loop
			vertex 315.6899 186.35167241 -51.59291
			vertex 280.52855551 156.8478 -64.47737787
			vertex 280.52855551 156.8478 -58.5560416
		endloop
	endfacet
	facet normal -0.642787625254302 0.766044430056074 1.01962854903319E-10
		outer loop
			vertex 317.87300428 188.18351448 -38.27663337
			vertex 315.6899 186.35167241 -51.59291
			vertex 280.52855551 156.8478 -58.5560416
		endloop
	endfacet
	facet normal -0.642787625071226 0.766044430209692 -4.72540140725904E-10
		outer loop
			vertex 319.8941 189.87941523 -25.94856
			vertex 317.87300428 188.18351448 -38.27663337
			vertex 280.52855551 156.8478 -58.5560416
		endloop
	endfacet
	facet normal -0.642787625300919 0.766044430016957 0
		outer loop
			vertex 319.8941 189.87941523 -25.94856
			vertex 280.52855551 156.8478 -58.5560416
			vertex 280.52855551 156.8478 -31.91075563
		endloop
	endfacet
	facet normal -0.642787625300919 0.766044430016957 0
		outer loop
			vertex 319.8941 189.87941523 -25.94856
			vertex 280.52855551 156.8478 -31.91075563
			vertex 280.52855551 156.8478 -30.30774705
		endloop
	endfacet
	facet normal -0.642787625290351 0.766044430025825 -1.6263679734952E-10
		outer loop
			vertex 320.67956116 190.53849543 -11.46168379
			vertex 319.8941 189.87941523 -25.94856
			vertex 280.52855551 156.8478 -30.30774705
		endloop
	endfacet
	facet normal -0.642787625393254 0.766044429939479 2.10954420717496E-10
		outer loop
			vertex 321.301 191.05994455 0
			vertex 320.67956116 190.53849543 -11.46168379
			vertex 280.52855551 156.8478 -30.30774705
		endloop
	endfacet
	facet normal -0.642787625301234 0.766044430016693 0
		outer loop
			vertex 321.301 191.05994455 0
			vertex 280.52855551 156.8478 -30.30774705
			vertex 280.52855551 156.8478 -0.02019145
		endloop
	endfacet
	facet normal -0.642787625301234 0.766044430016693 0
		outer loop
			vertex 321.301 191.05994455 0
			vertex 280.52855551 156.8478 -0.02019145
			vertex 280.52855551 156.8478 0
		endloop
	endfacet
	facet normal -0.642787625301234 0.766044430016693 0
		outer loop
			vertex 321.301 191.05994455 0
			vertex 280.52855551 156.8478 0
			vertex 280.52855551 156.8478 0.2629562
		endloop
	endfacet
	facet normal -0.642787625301234 0.766044430016693 0
		outer loop
			vertex 321.301 191.05994455 198.42658322
			vertex 321.301 191.05994455 0
			vertex 280.52855551 156.8478 0.2629562
		endloop
	endfacet
	facet normal -0.642787625301234 0.766044430016693 0
		outer loop
			vertex 321.301 191.05994455 350
			vertex 321.301 191.05994455 198.42658322
			vertex 280.52855551 156.8478 0.2629562
		endloop
	endfacet
	facet normal -0.642787625301234 0.766044430016693 0
		outer loop
			vertex 321.301 191.05994455 350
			vertex 280.52855551 156.8478 0.2629562
			vertex 280.52855551 156.8478 350
		endloop
	endfacet
endsolid C:\Users\Matt Campbell\Documents\GitHub\TVGL\TestFiles\covxhullProb5
#  created by TVGL on 2016/8/30 at 8:16:37
#  Originally loaded from : C:\Users\Matt Campbell\Documents\GitHub\TVGL\TestFiles\covxhullProb5.ply
