solid C:\Users\Matt\Documents\GitHub\TVGL\TestFiles\cvxhullProb5
	facet normal 0.118505183439304 -0.382338071342492 -0.916391903445311
		outer loop
			vertex 98.608392176 -198.590697366 -98.155289436
			vertex 94.313260596 -198.2041 -98.872020176
			vertex 98.6362 -198.2041 -98.31299
		endloop
	endfacet
	facet normal 0.193763828812307 -0.382462278241044 -0.903425804572055
		outer loop
			vertex 102.046274603 -198.2041 -97.581608288
			vertex 98.608392176 -198.590697366 -98.155289436
			vertex 98.6362 -198.2041 -98.31299
		endloop
	endfacet
	facet normal 0.207916049360529 -0.130437182732529 -0.969410675502963
		outer loop
			vertex 105.554096369 -196.962996803 -96.996256328
			vertex 102.046274603 -198.2041 -97.581608288
			vertex 98.6362 -198.2041 -98.31299
		endloop
	endfacet
	facet normal 0.163241508314825 0.127959247604148 -0.978252851217762
		outer loop
			vertex 89.930665703 -196.963000561 -99.603345962
			vertex 105.554096369 -196.962996803 -96.996256328
			vertex 98.6362 -198.2041 -98.31299
		endloop
	endfacet
	facet normal 0.127154325595882 -0.130391266180115 -0.983275086222672
		outer loop
			vertex 94.313260596 -198.2041 -98.872020176
			vertex 89.930665703 -196.963000561 -99.603345962
			vertex 98.6362 -198.2041 -98.31299
		endloop
	endfacet
	facet normal -0.164594600321116 2.72558141962043E-10 0.986361301727279
		outer loop
			vertex 98.608392176 -198.590697366 -98.155289436
			vertex 102.046274603 -198.2041 -97.581608288
			vertex 105.554096369 -196.962996803 -96.996256328
		endloop
	endfacet
	facet normal -0.164594600296942 1.66528063495591E-10 0.986361301731313
		outer loop
			vertex 94.313260596 -198.2041 -98.872020176
			vertex 98.608392176 -198.590697366 -98.155289436
			vertex 105.554096369 -196.962996803 -96.996256328
		endloop
	endfacet
	facet normal -0.164594600258657 -1.89879664080625E-10 0.986361301737701
		outer loop
			vertex 94.313260596 -198.2041 -98.872020176
			vertex 105.554096369 -196.962996803 -96.996256328
			vertex 89.930665703 -196.963000561 -99.603345962
		endloop
	endfacet
endsolid C:\Users\Matt\Documents\GitHub\TVGL\TestFiles\cvxhullProb5
#  created by TVGL on 2016/6/29 at 14:28:44
#  Originally loaded from : C:\Users\Matt\Documents\GitHub\TVGL\TestFiles\cvxhullProb5.ply
