solid C:\Users\Matt Campbell\Documents\GitHub\TVGL\TestFiles\covxhullProb13
	facet normal 0.9975627930184 -0.00135475060324393 -0.0697612975519589
		outer loop
			vertex -118.66615211 157.48708934 104.84842987
			vertex -118.66338437 157.48476693 104.88805271
			vertex -118.6664 156.8478 104.8573
		endloop
	endfacet
	facet normal 0.997660978225824 0.000561557773813976 0.0683539112147805
		outer loop
			vertex -118.65321871 157.47623694 104.65974931
			vertex -118.66615211 157.48708934 104.84842987
			vertex -118.6664 156.8478 104.8573
		endloop
	endfacet
	facet normal 0.98664191122619 0.0296588840012084 0.16018142717473
		outer loop
			vertex -117.90427677 156.8478 100.16298098
			vertex -118.65321871 157.47623694 104.65974931
			vertex -118.6664 156.8478 104.8573
		endloop
	endfacet
	facet normal 0 -1 0
		outer loop
			vertex -117.90427677 156.8478 100.09169258
			vertex -117.90427677 156.8478 100.16298098
			vertex -118.6664 156.8478 104.8573
		endloop
	endfacet
	facet normal 0 -1 0
		outer loop
			vertex -158.699 156.8478 0
			vertex -117.90427677 156.8478 100.09169258
			vertex -118.6664 156.8478 104.8573
		endloop
	endfacet
	facet normal 0 -1 0
		outer loop
			vertex -117.90427677 156.8478 0
			vertex -117.90427677 156.8478 100.09169258
			vertex -158.699 156.8478 0
		endloop
	endfacet
	facet normal 0 -1 0
		outer loop
			vertex -117.90427677 156.8478 -0.00545156
			vertex -117.90427677 156.8478 0
			vertex -158.699 156.8478 0
		endloop
	endfacet
	facet normal 0 -1 0
		outer loop
			vertex -157.2921 156.8478 -25.94856
			vertex -117.90427677 156.8478 -0.00545156
			vertex -158.699 156.8478 0
		endloop
	endfacet
	facet normal 0 -1 0
		outer loop
			vertex -117.90427677 156.8478 -25.16028269
			vertex -117.90427677 156.8478 -0.00545156
			vertex -157.2921 156.8478 -25.94856
		endloop
	endfacet
	facet normal 0 -1 0
		outer loop
			vertex -117.90427677 156.8478 -26.27912442
			vertex -117.90427677 156.8478 -25.16028269
			vertex -157.2921 156.8478 -25.94856
		endloop
	endfacet
	facet normal 0 -1 0
		outer loop
			vertex -153.088 156.8478 -51.59291
			vertex -117.90427677 156.8478 -26.27912442
			vertex -157.2921 156.8478 -25.94856
		endloop
	endfacet
	facet normal 0 -1 0
		outer loop
			vertex -117.90427677 156.8478 -50.12069638
			vertex -117.90427677 156.8478 -26.27912442
			vertex -153.088 156.8478 -51.59291
		endloop
	endfacet
	facet normal 0 -1 0
		outer loop
			vertex -117.90427677 156.8478 -54.77081096
			vertex -117.90427677 156.8478 -50.12069638
			vertex -153.088 156.8478 -51.59291
		endloop
	endfacet
	facet normal 0 -1 0
		outer loop
			vertex -146.1358 156.8478 -76.63237
			vertex -117.90427677 156.8478 -54.77081096
			vertex -153.088 156.8478 -51.59291
		endloop
	endfacet
	facet normal 0 -1 0
		outer loop
			vertex -117.90427677 156.8478 -74.73711882
			vertex -117.90427677 156.8478 -54.77081096
			vertex -146.1358 156.8478 -76.63237
		endloop
	endfacet
	facet normal 0 -1 0
		outer loop
			vertex -117.90427677 156.8478 -93.01830188
			vertex -117.90427677 156.8478 -74.73711882
			vertex -146.1358 156.8478 -76.63237
		endloop
	endfacet
	facet normal 0 -1 0
		outer loop
			vertex -117.90427677 156.8478 -98.27078571
			vertex -117.90427677 156.8478 -93.01830188
			vertex -146.1358 156.8478 -76.63237
		endloop
	endfacet
	facet normal 0 -1 0
		outer loop
			vertex -136.5171 156.8478 -100.7734
			vertex -117.90427677 156.8478 -98.27078571
			vertex -146.1358 156.8478 -76.63237
		endloop
	endfacet
	facet normal 0 -1 0
		outer loop
			vertex -117.90427677 156.8478 -100.1324723
			vertex -117.90427677 156.8478 -98.27078571
			vertex -136.5171 156.8478 -100.7734
		endloop
	endfacet
	facet normal 0 -1 0
		outer loop
			vertex -117.90427677 156.8478 -102.90190854
			vertex -117.90427677 156.8478 -100.1324723
			vertex -136.5171 156.8478 -100.7734
		endloop
	endfacet
	facet normal 0 -1 0
		outer loop
			vertex -117.90427677 156.8478 -106.30444677
			vertex -117.90427677 156.8478 -102.90190854
			vertex -136.5171 156.8478 -100.7734
		endloop
	endfacet
	facet normal 0 -1 0
		outer loop
			vertex -117.90427677 156.8478 -109.76101563
			vertex -117.90427677 156.8478 -106.30444677
			vertex -136.5171 156.8478 -100.7734
		endloop
	endfacet
	facet normal 0 -1 0
		outer loop
			vertex -117.90427677 156.8478 -113.41366023
			vertex -117.90427677 156.8478 -109.76101563
			vertex -136.5171 156.8478 -100.7734
		endloop
	endfacet
	facet normal 0 -1 0
		outer loop
			vertex -124.3448 156.8478 -123.7329
			vertex -117.90427677 156.8478 -113.41366023
			vertex -136.5171 156.8478 -100.7734
		endloop
	endfacet
	facet normal 0 -1 0
		outer loop
			vertex -117.90427677 156.8478 -116.99781136
			vertex -117.90427677 156.8478 -113.41366023
			vertex -124.3448 156.8478 -123.7329
		endloop
	endfacet
	facet normal 0 -1 0
		outer loop
			vertex -117.90427677 156.8478 -120.07275921
			vertex -117.90427677 156.8478 -116.99781136
			vertex -124.3448 156.8478 -123.7329
		endloop
	endfacet
	facet normal 0 -1 0
		outer loop
			vertex -117.90427677 156.8478 -122.11624927
			vertex -117.90427677 156.8478 -120.07275921
			vertex -124.3448 156.8478 -123.7329
		endloop
	endfacet
	facet normal 0 -1 0
		outer loop
			vertex -117.90427677 156.8478 -123.23889728
			vertex -117.90427677 156.8478 -122.11624927
			vertex -124.3448 156.8478 -123.7329
		endloop
	endfacet
	facet normal 0 -1 0
		outer loop
			vertex -117.90427677 156.8478 -133.23195853
			vertex -117.90427677 156.8478 -123.23889728
			vertex -124.3448 156.8478 -123.7329
		endloop
	endfacet
	facet normal -0.827688927758478 6.75868509634629E-10 -0.561187169192258
		outer loop
			vertex -123.25897705 161.34092722 -125.3343686
			vertex -117.90427677 156.8478 -133.23195853
			vertex -124.3448 156.8478 -123.7329
		endloop
	endfacet
	facet normal -0.827688926877699 0 -0.561187170491311
		outer loop
			vertex -124.3448 162.25204089 -123.7329
			vertex -123.25897705 161.34092722 -125.3343686
			vertex -124.3448 156.8478 -123.7329
		endloop
	endfacet
	facet normal -0.883512944631558 0 -0.468406742765808
		outer loop
			vertex -133.82282901 170.20505187 -105.85535778
			vertex -124.3448 162.25204089 -123.7329
			vertex -124.3448 156.8478 -123.7329
		endloop
	endfacet
	facet normal -0.883512944534095 3.15206150037232E-10 -0.468406742949644
		outer loop
			vertex -136.5171 156.8478 -100.7734
			vertex -133.82282901 170.20505187 -105.85535778
			vertex -124.3448 156.8478 -123.7329
		endloop
	endfacet
	facet normal -0.883512944191235 0 -0.46840674359635
		outer loop
			vertex -136.5171 172.46581375 -100.7734
			vertex -133.82282901 170.20505187 -105.85535778
			vertex -136.5171 156.8478 -100.7734
		endloop
	endfacet
	facet normal -0.928976263093867 0 -0.370139301625961
		outer loop
			vertex -142.80537309 177.7423016 -84.99108126
			vertex -136.5171 172.46581375 -100.7734
			vertex -136.5171 156.8478 -100.7734
		endloop
	endfacet
	facet normal -0.928976263135321 -9.10618294162418E-11 -0.370139301521919
		outer loop
			vertex -146.1358 156.8478 -76.63237
			vertex -142.80537309 177.7423016 -84.99108126
			vertex -136.5171 156.8478 -100.7734
		endloop
	endfacet
	facet normal -0.928976263213592 0 -0.370139301325476
		outer loop
			vertex -146.1358 180.53686171 -76.63237
			vertex -142.80537309 177.7423016 -84.99108126
			vertex -146.1358 156.8478 -76.63237
		endloop
	endfacet
	facet normal -0.963549713160486 0 -0.267529344686421
		outer loop
			vertex -149.98663032 183.76809214 -62.76298885
			vertex -146.1358 180.53686171 -76.63237
			vertex -146.1358 156.8478 -76.63237
		endloop
	endfacet
	facet normal -0.963549713255893 -1.90684716098784E-10 -0.267529344342795
		outer loop
			vertex -153.088 156.8478 -51.59291
			vertex -149.98663032 183.76809214 -62.76298885
			vertex -146.1358 156.8478 -76.63237
		endloop
	endfacet
	facet normal -0.963549713374357 0 -0.267529343916129
		outer loop
			vertex -153.088 186.3704504 -51.59291
			vertex -149.98663032 183.76809214 -62.76298885
			vertex -153.088 156.8478 -51.59291
		endloop
	endfacet
	facet normal -0.986827000362682 0 -0.161779081945693
		outer loop
			vertex -155.11676188 188.07278382 -39.21778105
			vertex -153.088 186.3704504 -51.59291
			vertex -153.088 156.8478 -51.59291
		endloop
	endfacet
	facet normal -0.986827000411672 -1.21616061027504E-10 -0.161779081646863
		outer loop
			vertex -157.2921 156.8478 -25.94856
			vertex -155.11676188 188.07278382 -39.21778105
			vertex -153.088 156.8478 -51.59291
		endloop
	endfacet
	facet normal -0.986827000457361 0 -0.161779081368167
		outer loop
			vertex -157.2921 189.89810931 -25.94856
			vertex -155.11676188 188.07278382 -39.21778105
			vertex -157.2921 156.8478 -25.94856
		endloop
	endfacet
	facet normal -0.998533393145645 0 -0.0541392904741476
		outer loop
			vertex -158.07800569 190.55756251 -11.45348501
			vertex -157.2921 189.89810931 -25.94856
			vertex -157.2921 156.8478 -25.94856
		endloop
	endfacet
	facet normal -0.998533393128359 1.3749744025002E-10 -0.0541392907929746
		outer loop
			vertex -158.699 191.07863863 0
			vertex -158.07800569 190.55756251 -11.45348501
			vertex -157.2921 156.8478 -25.94856
		endloop
	endfacet
	facet normal -0.998533393138164 0 -0.0541392906121223
		outer loop
			vertex -158.699 156.8478 0
			vertex -158.699 191.07863863 0
			vertex -157.2921 156.8478 -25.94856
		endloop
	endfacet
	facet normal -1 0 0
		outer loop
			vertex -158.699 191.07863863 198.5350068
			vertex -158.699 191.07863863 0
			vertex -158.699 156.8478 0
		endloop
	endfacet
	facet normal -1 0 0
		outer loop
			vertex -158.699 191.07863863 350
			vertex -158.699 191.07863863 198.5350068
			vertex -158.699 156.8478 0
		endloop
	endfacet
	facet normal -1 0 0
		outer loop
			vertex -158.699 156.8478 350
			vertex -158.699 191.07863863 350
			vertex -158.699 156.8478 0
		endloop
	endfacet
	facet normal 0 0 1
		outer loop
			vertex -117.90427677 156.8478 350
			vertex -158.699 191.07863863 350
			vertex -158.699 156.8478 350
		endloop
	endfacet
	facet normal 0 -1 0
		outer loop
			vertex -117.90427677 156.8478 109.65146388
			vertex -117.90427677 156.8478 350
			vertex -158.699 156.8478 350
		endloop
	endfacet
	facet normal 0 -1 0
		outer loop
			vertex -117.90427677 156.8478 109.58046742
			vertex -117.90427677 156.8478 109.65146388
			vertex -158.699 156.8478 350
		endloop
	endfacet
	facet normal 0 -1 0
		outer loop
			vertex -158.699 156.8478 0
			vertex -117.90427677 156.8478 109.58046742
			vertex -158.699 156.8478 350
		endloop
	endfacet
	facet normal 0 -1 0
		outer loop
			vertex -117.90427677 156.8478 109.55171795
			vertex -117.90427677 156.8478 109.58046742
			vertex -158.699 156.8478 0
		endloop
	endfacet
	facet normal 0 -1 0
		outer loop
			vertex -118.6664 156.8478 104.8573
			vertex -117.90427677 156.8478 109.55171795
			vertex -158.699 156.8478 0
		endloop
	endfacet
	facet normal 0.987072049215871 0.0030636011043057 -0.160247882997107
		outer loop
			vertex -118.66338437 157.48476693 104.88805271
			vertex -117.90427677 156.8478 109.55171795
			vertex -118.6664 156.8478 104.8573
		endloop
	endfacet
	facet normal 0.642787625264969 0.766044430047123 0
		outer loop
			vertex -158.699 191.07863863 198.5350068
			vertex -158.699 191.07863863 350
			vertex -117.90427677 156.8478 350
		endloop
	endfacet
	facet normal 0.642787625264969 0.766044430047123 0
		outer loop
			vertex -158.699 191.07863863 198.5350068
			vertex -117.90427677 156.8478 350
			vertex -117.90427677 156.8478 109.65146388
		endloop
	endfacet
	facet normal 0.642787625264964 0.766044430047127 0
		outer loop
			vertex -158.699 191.07863863 198.5350068
			vertex -117.90427677 156.8478 109.65146388
			vertex -117.90427677 156.8478 109.58046742
		endloop
	endfacet
	facet normal 0.642787625264954 0.766044430047136 0
		outer loop
			vertex -158.699 191.07863863 198.5350068
			vertex -117.90427677 156.8478 109.58046742
			vertex -117.90427677 156.8478 109.55171795
		endloop
	endfacet
	facet normal 0.642787624723375 0.766044430501574 -4.23118064641114E-10
		outer loop
			vertex -158.699 191.07863863 198.5350068
			vertex -117.90427677 156.8478 109.55171795
			vertex -118.66338437 157.48476693 104.88805271
		endloop
	endfacet
	facet normal 0.642787631934236 0.766044424450944 4.83020512438209E-09
		outer loop
			vertex -158.699 191.07863863 198.5350068
			vertex -118.66338437 157.48476693 104.88805271
			vertex -118.66615211 157.48708934 104.84842987
		endloop
	endfacet
	facet normal 0.642787702462892 0.766044365270363 5.61868558211822E-08
		outer loop
			vertex -158.699 191.07863863 198.5350068
			vertex -118.66615211 157.48708934 104.84842987
			vertex -118.65321871 157.47623694 104.65974931
		endloop
	endfacet
	facet normal 0.642787621873527 0.766044432892881 -2.39667357020901E-09
		outer loop
			vertex -158.699 191.07863863 198.5350068
			vertex -118.65321871 157.47623694 104.65974931
			vertex -117.90427677 156.8478 100.16298098
		endloop
	endfacet
	facet normal 0.642787625264954 0.766044430047136 0
		outer loop
			vertex -158.699 191.07863863 198.5350068
			vertex -117.90427677 156.8478 100.16298098
			vertex -117.90427677 156.8478 100.09169258
		endloop
	endfacet
	facet normal 0.642787625264969 0.766044430047123 0
		outer loop
			vertex -158.699 191.07863863 0
			vertex -158.699 191.07863863 198.5350068
			vertex -117.90427677 156.8478 100.09169258
		endloop
	endfacet
	facet normal 0.642787625434566 0.766044429904814 -1.17791978272599E-10
		outer loop
			vertex -158.07800569 190.55756251 -11.45348501
			vertex -158.699 191.07863863 0
			vertex -117.90427677 156.8478 100.09169258
		endloop
	endfacet
	facet normal 0.642787625242641 0.766044430065859 0
		outer loop
			vertex -158.07800569 190.55756251 -11.45348501
			vertex -117.90427677 156.8478 100.09169258
			vertex -117.90427677 156.8478 0
		endloop
	endfacet
	facet normal 0.642787625242661 0.766044430065842 0
		outer loop
			vertex -158.07800569 190.55756251 -11.45348501
			vertex -117.90427677 156.8478 0
			vertex -117.90427677 156.8478 -0.00545156
		endloop
	endfacet
	facet normal 0.642787625226841 0.766044430079116 9.44808297131577E-11
		outer loop
			vertex -157.2921 189.89810931 -25.94856
			vertex -158.07800569 190.55756251 -11.45348501
			vertex -117.90427677 156.8478 -0.00545156
		endloop
	endfacet
	facet normal 0.64278762526336 0.766044430048474 0
		outer loop
			vertex -157.2921 189.89810931 -25.94856
			vertex -117.90427677 156.8478 -0.00545156
			vertex -117.90427677 156.8478 -25.16028269
		endloop
	endfacet
	facet normal 0.64278762526366 0.766044430048222 -2.55643223047872E-11
		outer loop
			vertex -155.11676188 188.07278382 -39.21778105
			vertex -157.2921 189.89810931 -25.94856
			vertex -117.90427677 156.8478 -25.16028269
		endloop
	endfacet
	facet normal 0.642787625257993 0.766044430052977 0
		outer loop
			vertex -155.11676188 188.07278382 -39.21778105
			vertex -117.90427677 156.8478 -25.16028269
			vertex -117.90427677 156.8478 -26.27912442
		endloop
	endfacet
	facet normal 0.642787625311416 0.76604443000815 -2.6183074767491E-10
		outer loop
			vertex -153.088 186.3704504 -51.59291
			vertex -155.11676188 188.07278382 -39.21778105
			vertex -117.90427677 156.8478 -26.27912442
		endloop
	endfacet
	facet normal 0.64278762520087 0.766044430100909 0
		outer loop
			vertex -153.088 186.3704504 -51.59291
			vertex -117.90427677 156.8478 -26.27912442
			vertex -117.90427677 156.8478 -50.12069638
		endloop
	endfacet
	facet normal 0.642787625198095 0.766044430103238 1.13017272407435E-10
		outer loop
			vertex -149.98663032 183.76809214 -62.76298885
			vertex -153.088 186.3704504 -51.59291
			vertex -117.90427677 156.8478 -50.12069638
		endloop
	endfacet
	facet normal 0.642787625224229 0.766044430081308 0
		outer loop
			vertex -149.98663032 183.76809214 -62.76298885
			vertex -117.90427677 156.8478 -50.12069638
			vertex -117.90427677 156.8478 -54.77081096
		endloop
	endfacet
	facet normal 0.642787625191464 0.766044430108801 2.24129276551204E-10
		outer loop
			vertex -146.1358 180.53686171 -76.63237
			vertex -149.98663032 183.76809214 -62.76298885
			vertex -117.90427677 156.8478 -54.77081096
		endloop
	endfacet
	facet normal 0.642787625293313 0.76604443002334 0
		outer loop
			vertex -146.1358 180.53686171 -76.63237
			vertex -117.90427677 156.8478 -54.77081096
			vertex -117.90427677 156.8478 -74.73711882
		endloop
	endfacet
	facet normal 0.642787625302213 0.766044430015871 -2.25940101527209E-10
		outer loop
			vertex -142.80537309 177.7423016 -84.99108126
			vertex -146.1358 180.53686171 -76.63237
			vertex -117.90427677 156.8478 -74.73711882
		endloop
	endfacet
	facet normal 0.642787625247616 0.766044430061684 0
		outer loop
			vertex -142.80537309 177.7423016 -84.99108126
			vertex -117.90427677 156.8478 -74.73711882
			vertex -117.90427677 156.8478 -93.01830188
		endloop
	endfacet
	facet normal 0.642787625229035 0.766044430077276 -9.82223451446664E-11
		outer loop
			vertex -136.5171 172.46581375 -100.7734
			vertex -142.80537309 177.7423016 -84.99108126
			vertex -117.90427677 156.8478 -93.01830188
		endloop
	endfacet
	facet normal 0.642787625205019 0.766044430097427 0
		outer loop
			vertex -136.5171 172.46581375 -100.7734
			vertex -117.90427677 156.8478 -93.01830188
			vertex -117.90427677 156.8478 -98.27078571
		endloop
	endfacet
	facet normal 0.642787625127188 0.766044430162735 9.8642249328215E-10
		outer loop
			vertex -133.82282901 170.20505187 -105.85535778
			vertex -136.5171 172.46581375 -100.7734
			vertex -117.90427677 156.8478 -98.27078571
		endloop
	endfacet
	facet normal 0.642787625402991 0.766044429931309 0
		outer loop
			vertex -133.82282901 170.20505187 -105.85535778
			vertex -117.90427677 156.8478 -98.27078571
			vertex -117.90427677 156.8478 -100.1324723
		endloop
	endfacet
	facet normal 0.642787625402991 0.766044429931309 0
		outer loop
			vertex -133.82282901 170.20505187 -105.85535778
			vertex -117.90427677 156.8478 -100.1324723
			vertex -117.90427677 156.8478 -102.90190854
		endloop
	endfacet
	facet normal 0.642787625402991 0.766044429931309 0
		outer loop
			vertex -133.82282901 170.20505187 -105.85535778
			vertex -117.90427677 156.8478 -102.90190854
			vertex -117.90427677 156.8478 -106.30444677
		endloop
	endfacet
	facet normal 0.642787625402991 0.766044429931309 0
		outer loop
			vertex -133.82282901 170.20505187 -105.85535778
			vertex -117.90427677 156.8478 -106.30444677
			vertex -117.90427677 156.8478 -109.76101563
		endloop
	endfacet
	facet normal 0.642787625402991 0.766044429931309 0
		outer loop
			vertex -133.82282901 170.20505187 -105.85535778
			vertex -117.90427677 156.8478 -109.76101563
			vertex -117.90427677 156.8478 -113.41366023
		endloop
	endfacet
	facet normal 0.642787625402991 0.766044429931309 0
		outer loop
			vertex -133.82282901 170.20505187 -105.85535778
			vertex -117.90427677 156.8478 -113.41366023
			vertex -117.90427677 156.8478 -116.99781136
		endloop
	endfacet
	facet normal 0.642787625402991 0.766044429931309 0
		outer loop
			vertex -133.82282901 170.20505187 -105.85535778
			vertex -117.90427677 156.8478 -116.99781136
			vertex -117.90427677 156.8478 -120.07275921
		endloop
	endfacet
	facet normal 0.642787625315401 0.766044430004806 -1.67120268684785E-10
		outer loop
			vertex -124.3448 162.25204089 -123.7329
			vertex -133.82282901 170.20505187 -105.85535778
			vertex -117.90427677 156.8478 -120.07275921
		endloop
	endfacet
	facet normal 0.642787625259668 0.766044430051571 0
		outer loop
			vertex -124.3448 162.25204089 -123.7329
			vertex -117.90427677 156.8478 -120.07275921
			vertex -117.90427677 156.8478 -122.11624927
		endloop
	endfacet
	facet normal 0.642787625259668 0.766044430051571 0
		outer loop
			vertex -124.3448 162.25204089 -123.7329
			vertex -117.90427677 156.8478 -122.11624927
			vertex -117.90427677 156.8478 -123.23889728
		endloop
	endfacet
	facet normal 0.64278762516788 0.76604443012859 2.0392376190312E-09
		outer loop
			vertex -123.25897705 161.34092722 -125.3343686
			vertex -124.3448 162.25204089 -123.7329
			vertex -117.90427677 156.8478 -123.23889728
		endloop
	endfacet
	facet normal 0.642787625636178 0.766044429735641 0
		outer loop
			vertex -123.25897705 161.34092722 -125.3343686
			vertex -117.90427677 156.8478 -123.23889728
			vertex -117.90427677 156.8478 -133.23195853
		endloop
	endfacet
endsolid C:\Users\Matt Campbell\Documents\GitHub\TVGL\TestFiles\covxhullProb13
#  created by TVGL on 2016/8/30 at 8:16:32
#  Originally loaded from : C:\Users\Matt Campbell\Documents\GitHub\TVGL\TestFiles\covxhullProb13.ply
